G04 #@! TF.GenerationSoftware,KiCad,Pcbnew,5.1.9+dfsg1-1*
G04 #@! TF.CreationDate,2022-01-29T15:43:47+01:00*
G04 #@! TF.ProjectId,rogue_sensors,726f6775-655f-4736-956e-736f72732e6b,v01*
G04 #@! TF.SameCoordinates,Original*
G04 #@! TF.FileFunction,Legend,Top*
G04 #@! TF.FilePolarity,Positive*
%FSLAX46Y46*%
G04 Gerber Fmt 4.6, Leading zero omitted, Abs format (unit mm)*
G04 Created by KiCad (PCBNEW 5.1.9+dfsg1-1) date 2022-01-29 15:43:47*
%MOMM*%
%LPD*%
G01*
G04 APERTURE LIST*
%ADD10C,0.300000*%
%ADD11C,0.150000*%
%ADD12C,0.120000*%
G04 APERTURE END LIST*
D10*
X40862142Y-25304761D02*
X40671666Y-25114285D01*
X40290714Y-24923809D01*
X39909761Y-24923809D01*
X39528809Y-25114285D01*
X39338333Y-25304761D01*
X39147857Y-25685714D01*
X39147857Y-26066666D01*
X39338333Y-26447619D01*
X39528809Y-26638095D01*
X39909761Y-26828571D01*
X40290714Y-26828571D01*
X40671666Y-26638095D01*
X40862142Y-26447619D01*
X40862142Y-24923809D02*
X40862142Y-26447619D01*
X41052619Y-26638095D01*
X41243095Y-26638095D01*
X41624047Y-26447619D01*
X41814523Y-26066666D01*
X41814523Y-25114285D01*
X41433571Y-24542857D01*
X40862142Y-24161904D01*
X40100238Y-23971428D01*
X39338333Y-24161904D01*
X38766904Y-24542857D01*
X38385952Y-25114285D01*
X38195476Y-25876190D01*
X38385952Y-26638095D01*
X38766904Y-27209523D01*
X39338333Y-27590476D01*
X40100238Y-27780952D01*
X40862142Y-27590476D01*
X41433571Y-27209523D01*
D11*
X70016904Y-89352380D02*
X70016904Y-88352380D01*
X70350238Y-89066666D01*
X70683571Y-88352380D01*
X70683571Y-89352380D01*
X71921666Y-89352380D02*
X71921666Y-88352380D01*
X72493095Y-89352380D01*
X72493095Y-88352380D01*
X73540714Y-89257142D02*
X73493095Y-89304761D01*
X73350238Y-89352380D01*
X73255000Y-89352380D01*
X73112142Y-89304761D01*
X73016904Y-89209523D01*
X72969285Y-89114285D01*
X72921666Y-88923809D01*
X72921666Y-88780952D01*
X72969285Y-88590476D01*
X73016904Y-88495238D01*
X73112142Y-88400000D01*
X73255000Y-88352380D01*
X73350238Y-88352380D01*
X73493095Y-88400000D01*
X73540714Y-88447619D01*
X94305714Y-65857380D02*
X94305714Y-64857380D01*
X94639047Y-65571666D01*
X94972380Y-64857380D01*
X94972380Y-65857380D01*
X96162857Y-65571666D02*
X96639047Y-65571666D01*
X96067619Y-65857380D02*
X96400952Y-64857380D01*
X96734285Y-65857380D01*
X97067619Y-65857380D02*
X97067619Y-64857380D01*
X97400952Y-65571666D01*
X97734285Y-64857380D01*
X97734285Y-65857380D01*
X98210476Y-65857380D02*
X98210476Y-64857380D01*
X98591428Y-64857380D01*
X98686666Y-64905000D01*
X98734285Y-64952619D01*
X98781904Y-65047857D01*
X98781904Y-65190714D01*
X98734285Y-65285952D01*
X98686666Y-65333571D01*
X98591428Y-65381190D01*
X98210476Y-65381190D01*
X86050714Y-20772380D02*
X86050714Y-19772380D01*
X86384047Y-20486666D01*
X86717380Y-19772380D01*
X86717380Y-20772380D01*
X87907857Y-20486666D02*
X88384047Y-20486666D01*
X87812619Y-20772380D02*
X88145952Y-19772380D01*
X88479285Y-20772380D01*
X88812619Y-20772380D02*
X88812619Y-19772380D01*
X89145952Y-20486666D01*
X89479285Y-19772380D01*
X89479285Y-20772380D01*
X89955476Y-20772380D02*
X89955476Y-19772380D01*
X90336428Y-19772380D01*
X90431666Y-19820000D01*
X90479285Y-19867619D01*
X90526904Y-19962857D01*
X90526904Y-20105714D01*
X90479285Y-20200952D01*
X90431666Y-20248571D01*
X90336428Y-20296190D01*
X89955476Y-20296190D01*
X81256428Y-18232380D02*
X81256428Y-17232380D01*
X81589761Y-17946666D01*
X81923095Y-17232380D01*
X81923095Y-18232380D01*
X83161190Y-18232380D02*
X83161190Y-17232380D01*
X83542142Y-17232380D01*
X83637380Y-17280000D01*
X83685000Y-17327619D01*
X83732619Y-17422857D01*
X83732619Y-17565714D01*
X83685000Y-17660952D01*
X83637380Y-17708571D01*
X83542142Y-17756190D01*
X83161190Y-17756190D01*
X84161190Y-18232380D02*
X84161190Y-17232380D01*
X85065952Y-17565714D02*
X85065952Y-18232380D01*
X84827857Y-17184761D02*
X84589761Y-17899047D01*
X85208809Y-17899047D01*
X23090476Y-18867380D02*
X23090476Y-17867380D01*
X23423809Y-18581666D01*
X23757142Y-17867380D01*
X23757142Y-18867380D01*
X25566666Y-18772142D02*
X25519047Y-18819761D01*
X25376190Y-18867380D01*
X25280952Y-18867380D01*
X25138095Y-18819761D01*
X25042857Y-18724523D01*
X24995238Y-18629285D01*
X24947619Y-18438809D01*
X24947619Y-18295952D01*
X24995238Y-18105476D01*
X25042857Y-18010238D01*
X25138095Y-17915000D01*
X25280952Y-17867380D01*
X25376190Y-17867380D01*
X25519047Y-17915000D01*
X25566666Y-17962619D01*
X26185714Y-17867380D02*
X26376190Y-17867380D01*
X26471428Y-17915000D01*
X26566666Y-18010238D01*
X26614285Y-18200714D01*
X26614285Y-18534047D01*
X26566666Y-18724523D01*
X26471428Y-18819761D01*
X26376190Y-18867380D01*
X26185714Y-18867380D01*
X26090476Y-18819761D01*
X25995238Y-18724523D01*
X25947619Y-18534047D01*
X25947619Y-18200714D01*
X25995238Y-18010238D01*
X26090476Y-17915000D01*
X26185714Y-17867380D01*
X27042857Y-18867380D02*
X27042857Y-17867380D01*
X27376190Y-18581666D01*
X27709523Y-17867380D01*
X27709523Y-18867380D01*
X92527380Y-56697380D02*
X92051190Y-57030714D01*
X92527380Y-57268809D02*
X91527380Y-57268809D01*
X91527380Y-56887857D01*
X91575000Y-56792619D01*
X91622619Y-56745000D01*
X91717857Y-56697380D01*
X91860714Y-56697380D01*
X91955952Y-56745000D01*
X92003571Y-56792619D01*
X92051190Y-56887857D01*
X92051190Y-57268809D01*
X92003571Y-56268809D02*
X92003571Y-55935476D01*
X92527380Y-55792619D02*
X92527380Y-56268809D01*
X91527380Y-56268809D01*
X91527380Y-55792619D01*
X92479761Y-55411666D02*
X92527380Y-55268809D01*
X92527380Y-55030714D01*
X92479761Y-54935476D01*
X92432142Y-54887857D01*
X92336904Y-54840238D01*
X92241666Y-54840238D01*
X92146428Y-54887857D01*
X92098809Y-54935476D01*
X92051190Y-55030714D01*
X92003571Y-55221190D01*
X91955952Y-55316428D01*
X91908333Y-55364047D01*
X91813095Y-55411666D01*
X91717857Y-55411666D01*
X91622619Y-55364047D01*
X91575000Y-55316428D01*
X91527380Y-55221190D01*
X91527380Y-54983095D01*
X91575000Y-54840238D01*
X92003571Y-54411666D02*
X92003571Y-54078333D01*
X92527380Y-53935476D02*
X92527380Y-54411666D01*
X91527380Y-54411666D01*
X91527380Y-53935476D01*
X91527380Y-53649761D02*
X91527380Y-53078333D01*
X92527380Y-53364047D02*
X91527380Y-53364047D01*
X19486666Y-78033571D02*
X19629523Y-78081190D01*
X19677142Y-78128809D01*
X19724761Y-78224047D01*
X19724761Y-78366904D01*
X19677142Y-78462142D01*
X19629523Y-78509761D01*
X19534285Y-78557380D01*
X19153333Y-78557380D01*
X19153333Y-77557380D01*
X19486666Y-77557380D01*
X19581904Y-77605000D01*
X19629523Y-77652619D01*
X19677142Y-77747857D01*
X19677142Y-77843095D01*
X19629523Y-77938333D01*
X19581904Y-77985952D01*
X19486666Y-78033571D01*
X19153333Y-78033571D01*
X20010476Y-77557380D02*
X20581904Y-77557380D01*
X20296190Y-78557380D02*
X20296190Y-77557380D01*
X20915238Y-78557380D02*
X20915238Y-77557380D01*
X21486666Y-78557380D01*
X21486666Y-77557380D01*
X18137142Y-25605952D02*
X18184761Y-25653571D01*
X18232380Y-25796428D01*
X18232380Y-25891666D01*
X18184761Y-26034523D01*
X18089523Y-26129761D01*
X17994285Y-26177380D01*
X17803809Y-26225000D01*
X17660952Y-26225000D01*
X17470476Y-26177380D01*
X17375238Y-26129761D01*
X17280000Y-26034523D01*
X17232380Y-25891666D01*
X17232380Y-25796428D01*
X17280000Y-25653571D01*
X17327619Y-25605952D01*
X17946666Y-25225000D02*
X17946666Y-24748809D01*
X18232380Y-25320238D02*
X17232380Y-24986904D01*
X18232380Y-24653571D01*
X18232380Y-24320238D02*
X17232380Y-24320238D01*
X17232380Y-23939285D01*
X17280000Y-23844047D01*
X17327619Y-23796428D01*
X17422857Y-23748809D01*
X17565714Y-23748809D01*
X17660952Y-23796428D01*
X17708571Y-23844047D01*
X17756190Y-23939285D01*
X17756190Y-24320238D01*
X18184761Y-22605952D02*
X18232380Y-22463095D01*
X18232380Y-22225000D01*
X18184761Y-22129761D01*
X18137142Y-22082142D01*
X18041904Y-22034523D01*
X17946666Y-22034523D01*
X17851428Y-22082142D01*
X17803809Y-22129761D01*
X17756190Y-22225000D01*
X17708571Y-22415476D01*
X17660952Y-22510714D01*
X17613333Y-22558333D01*
X17518095Y-22605952D01*
X17422857Y-22605952D01*
X17327619Y-22558333D01*
X17280000Y-22510714D01*
X17232380Y-22415476D01*
X17232380Y-22177380D01*
X17280000Y-22034523D01*
X17708571Y-21605952D02*
X17708571Y-21272619D01*
X18232380Y-21129761D02*
X18232380Y-21605952D01*
X17232380Y-21605952D01*
X17232380Y-21129761D01*
X18232380Y-20701190D02*
X17232380Y-20701190D01*
X18232380Y-20129761D01*
X17232380Y-20129761D01*
X18184761Y-19701190D02*
X18232380Y-19558333D01*
X18232380Y-19320238D01*
X18184761Y-19225000D01*
X18137142Y-19177380D01*
X18041904Y-19129761D01*
X17946666Y-19129761D01*
X17851428Y-19177380D01*
X17803809Y-19225000D01*
X17756190Y-19320238D01*
X17708571Y-19510714D01*
X17660952Y-19605952D01*
X17613333Y-19653571D01*
X17518095Y-19701190D01*
X17422857Y-19701190D01*
X17327619Y-19653571D01*
X17280000Y-19605952D01*
X17232380Y-19510714D01*
X17232380Y-19272619D01*
X17280000Y-19129761D01*
X17708571Y-18701190D02*
X17708571Y-18367857D01*
X18232380Y-18225000D02*
X18232380Y-18701190D01*
X17232380Y-18701190D01*
X17232380Y-18225000D01*
X114117380Y-55300476D02*
X114117380Y-55776666D01*
X113117380Y-55776666D01*
X114117380Y-54967142D02*
X113117380Y-54967142D01*
X113117380Y-54729047D01*
X113165000Y-54586190D01*
X113260238Y-54490952D01*
X113355476Y-54443333D01*
X113545952Y-54395714D01*
X113688809Y-54395714D01*
X113879285Y-54443333D01*
X113974523Y-54490952D01*
X114069761Y-54586190D01*
X114117380Y-54729047D01*
X114117380Y-54967142D01*
X114117380Y-53395714D02*
X113641190Y-53729047D01*
X114117380Y-53967142D02*
X113117380Y-53967142D01*
X113117380Y-53586190D01*
X113165000Y-53490952D01*
X113212619Y-53443333D01*
X113307857Y-53395714D01*
X113450714Y-53395714D01*
X113545952Y-53443333D01*
X113593571Y-53490952D01*
X113641190Y-53586190D01*
X113641190Y-53967142D01*
X55967380Y-89169523D02*
X56967380Y-88931428D01*
X56253095Y-88740952D01*
X56967380Y-88550476D01*
X55967380Y-88312380D01*
X56919761Y-87979047D02*
X56967380Y-87836190D01*
X56967380Y-87598095D01*
X56919761Y-87502857D01*
X56872142Y-87455238D01*
X56776904Y-87407619D01*
X56681666Y-87407619D01*
X56586428Y-87455238D01*
X56538809Y-87502857D01*
X56491190Y-87598095D01*
X56443571Y-87788571D01*
X56395952Y-87883809D01*
X56348333Y-87931428D01*
X56253095Y-87979047D01*
X56157857Y-87979047D01*
X56062619Y-87931428D01*
X56015000Y-87883809D01*
X55967380Y-87788571D01*
X55967380Y-87550476D01*
X56015000Y-87407619D01*
X56062619Y-87026666D02*
X56015000Y-86979047D01*
X55967380Y-86883809D01*
X55967380Y-86645714D01*
X56015000Y-86550476D01*
X56062619Y-86502857D01*
X56157857Y-86455238D01*
X56253095Y-86455238D01*
X56395952Y-86502857D01*
X56967380Y-87074285D01*
X56967380Y-86455238D01*
X56395952Y-85883809D02*
X56348333Y-85979047D01*
X56300714Y-86026666D01*
X56205476Y-86074285D01*
X56157857Y-86074285D01*
X56062619Y-86026666D01*
X56015000Y-85979047D01*
X55967380Y-85883809D01*
X55967380Y-85693333D01*
X56015000Y-85598095D01*
X56062619Y-85550476D01*
X56157857Y-85502857D01*
X56205476Y-85502857D01*
X56300714Y-85550476D01*
X56348333Y-85598095D01*
X56395952Y-85693333D01*
X56395952Y-85883809D01*
X56443571Y-85979047D01*
X56491190Y-86026666D01*
X56586428Y-86074285D01*
X56776904Y-86074285D01*
X56872142Y-86026666D01*
X56919761Y-85979047D01*
X56967380Y-85883809D01*
X56967380Y-85693333D01*
X56919761Y-85598095D01*
X56872142Y-85550476D01*
X56776904Y-85502857D01*
X56586428Y-85502857D01*
X56491190Y-85550476D01*
X56443571Y-85598095D01*
X56395952Y-85693333D01*
X56967380Y-84550476D02*
X56967380Y-85121904D01*
X56967380Y-84836190D02*
X55967380Y-84836190D01*
X56110238Y-84931428D01*
X56205476Y-85026666D01*
X56253095Y-85121904D01*
X56967380Y-83598095D02*
X56967380Y-84169523D01*
X56967380Y-83883809D02*
X55967380Y-83883809D01*
X56110238Y-83979047D01*
X56205476Y-84074285D01*
X56253095Y-84169523D01*
X33505000Y-21407380D02*
X33171666Y-20931190D01*
X32933571Y-21407380D02*
X32933571Y-20407380D01*
X33314523Y-20407380D01*
X33409761Y-20455000D01*
X33457380Y-20502619D01*
X33505000Y-20597857D01*
X33505000Y-20740714D01*
X33457380Y-20835952D01*
X33409761Y-20883571D01*
X33314523Y-20931190D01*
X32933571Y-20931190D01*
X34076428Y-21407380D02*
X33981190Y-21359761D01*
X33933571Y-21312142D01*
X33885952Y-21216904D01*
X33885952Y-20931190D01*
X33933571Y-20835952D01*
X33981190Y-20788333D01*
X34076428Y-20740714D01*
X34219285Y-20740714D01*
X34314523Y-20788333D01*
X34362142Y-20835952D01*
X34409761Y-20931190D01*
X34409761Y-21216904D01*
X34362142Y-21312142D01*
X34314523Y-21359761D01*
X34219285Y-21407380D01*
X34076428Y-21407380D01*
X35266904Y-20740714D02*
X35266904Y-21550238D01*
X35219285Y-21645476D01*
X35171666Y-21693095D01*
X35076428Y-21740714D01*
X34933571Y-21740714D01*
X34838333Y-21693095D01*
X35266904Y-21359761D02*
X35171666Y-21407380D01*
X34981190Y-21407380D01*
X34885952Y-21359761D01*
X34838333Y-21312142D01*
X34790714Y-21216904D01*
X34790714Y-20931190D01*
X34838333Y-20835952D01*
X34885952Y-20788333D01*
X34981190Y-20740714D01*
X35171666Y-20740714D01*
X35266904Y-20788333D01*
X36171666Y-20740714D02*
X36171666Y-21407380D01*
X35743095Y-20740714D02*
X35743095Y-21264523D01*
X35790714Y-21359761D01*
X35885952Y-21407380D01*
X36028809Y-21407380D01*
X36124047Y-21359761D01*
X36171666Y-21312142D01*
X37028809Y-21359761D02*
X36933571Y-21407380D01*
X36743095Y-21407380D01*
X36647857Y-21359761D01*
X36600238Y-21264523D01*
X36600238Y-20883571D01*
X36647857Y-20788333D01*
X36743095Y-20740714D01*
X36933571Y-20740714D01*
X37028809Y-20788333D01*
X37076428Y-20883571D01*
X37076428Y-20978809D01*
X36600238Y-21074047D01*
X38219285Y-21359761D02*
X38362142Y-21407380D01*
X38600238Y-21407380D01*
X38695476Y-21359761D01*
X38743095Y-21312142D01*
X38790714Y-21216904D01*
X38790714Y-21121666D01*
X38743095Y-21026428D01*
X38695476Y-20978809D01*
X38600238Y-20931190D01*
X38409761Y-20883571D01*
X38314523Y-20835952D01*
X38266904Y-20788333D01*
X38219285Y-20693095D01*
X38219285Y-20597857D01*
X38266904Y-20502619D01*
X38314523Y-20455000D01*
X38409761Y-20407380D01*
X38647857Y-20407380D01*
X38790714Y-20455000D01*
X39600238Y-21359761D02*
X39505000Y-21407380D01*
X39314523Y-21407380D01*
X39219285Y-21359761D01*
X39171666Y-21264523D01*
X39171666Y-20883571D01*
X39219285Y-20788333D01*
X39314523Y-20740714D01*
X39505000Y-20740714D01*
X39600238Y-20788333D01*
X39647857Y-20883571D01*
X39647857Y-20978809D01*
X39171666Y-21074047D01*
X40076428Y-20740714D02*
X40076428Y-21407380D01*
X40076428Y-20835952D02*
X40124047Y-20788333D01*
X40219285Y-20740714D01*
X40362142Y-20740714D01*
X40457380Y-20788333D01*
X40505000Y-20883571D01*
X40505000Y-21407380D01*
X40933571Y-21359761D02*
X41028809Y-21407380D01*
X41219285Y-21407380D01*
X41314523Y-21359761D01*
X41362142Y-21264523D01*
X41362142Y-21216904D01*
X41314523Y-21121666D01*
X41219285Y-21074047D01*
X41076428Y-21074047D01*
X40981190Y-21026428D01*
X40933571Y-20931190D01*
X40933571Y-20883571D01*
X40981190Y-20788333D01*
X41076428Y-20740714D01*
X41219285Y-20740714D01*
X41314523Y-20788333D01*
X41933571Y-21407380D02*
X41838333Y-21359761D01*
X41790714Y-21312142D01*
X41743095Y-21216904D01*
X41743095Y-20931190D01*
X41790714Y-20835952D01*
X41838333Y-20788333D01*
X41933571Y-20740714D01*
X42076428Y-20740714D01*
X42171666Y-20788333D01*
X42219285Y-20835952D01*
X42266904Y-20931190D01*
X42266904Y-21216904D01*
X42219285Y-21312142D01*
X42171666Y-21359761D01*
X42076428Y-21407380D01*
X41933571Y-21407380D01*
X42695476Y-21407380D02*
X42695476Y-20740714D01*
X42695476Y-20931190D02*
X42743095Y-20835952D01*
X42790714Y-20788333D01*
X42885952Y-20740714D01*
X42981190Y-20740714D01*
X43266904Y-21359761D02*
X43362142Y-21407380D01*
X43552619Y-21407380D01*
X43647857Y-21359761D01*
X43695476Y-21264523D01*
X43695476Y-21216904D01*
X43647857Y-21121666D01*
X43552619Y-21074047D01*
X43409761Y-21074047D01*
X43314523Y-21026428D01*
X43266904Y-20931190D01*
X43266904Y-20883571D01*
X43314523Y-20788333D01*
X43409761Y-20740714D01*
X43552619Y-20740714D01*
X43647857Y-20788333D01*
X44790714Y-20740714D02*
X45028809Y-21407380D01*
X45266904Y-20740714D01*
X45838333Y-20407380D02*
X45933571Y-20407380D01*
X46028809Y-20455000D01*
X46076428Y-20502619D01*
X46124047Y-20597857D01*
X46171666Y-20788333D01*
X46171666Y-21026428D01*
X46124047Y-21216904D01*
X46076428Y-21312142D01*
X46028809Y-21359761D01*
X45933571Y-21407380D01*
X45838333Y-21407380D01*
X45743095Y-21359761D01*
X45695476Y-21312142D01*
X45647857Y-21216904D01*
X45600238Y-21026428D01*
X45600238Y-20788333D01*
X45647857Y-20597857D01*
X45695476Y-20502619D01*
X45743095Y-20455000D01*
X45838333Y-20407380D01*
X47124047Y-21407380D02*
X46552619Y-21407380D01*
X46838333Y-21407380D02*
X46838333Y-20407380D01*
X46743095Y-20550238D01*
X46647857Y-20645476D01*
X46552619Y-20693095D01*
D12*
G04 #@! TO.C,R26*
X99600000Y-68480000D02*
X99600000Y-68810000D01*
X106140000Y-68480000D02*
X99600000Y-68480000D01*
X106140000Y-68810000D02*
X106140000Y-68480000D01*
X99600000Y-71220000D02*
X99600000Y-70890000D01*
X106140000Y-71220000D02*
X99600000Y-71220000D01*
X106140000Y-70890000D02*
X106140000Y-71220000D01*
G04 #@! TO.C,U1*
X51730000Y-29110000D02*
X72730000Y-29110000D01*
X58530000Y-80110000D02*
X51730000Y-80110000D01*
X51730000Y-31777000D02*
X54737000Y-31777000D01*
X54737000Y-31777000D02*
X54737000Y-29110000D01*
X51730000Y-29110000D02*
X51730000Y-29410000D01*
X51730000Y-31510000D02*
X51730000Y-31910000D01*
X51730000Y-34110000D02*
X51730000Y-34510000D01*
X51730000Y-36610000D02*
X51730000Y-37010000D01*
X51730000Y-39210000D02*
X51730000Y-39610000D01*
X51730000Y-41710000D02*
X51730000Y-42110000D01*
X51730000Y-44210000D02*
X51730000Y-44610000D01*
X51730000Y-46810000D02*
X51730000Y-47210000D01*
X51730000Y-49310000D02*
X51730000Y-49710000D01*
X51730000Y-51910000D02*
X51730000Y-52310000D01*
X51730000Y-54410000D02*
X51730000Y-54810000D01*
X51730000Y-56910000D02*
X51730000Y-57310000D01*
X51730000Y-59510000D02*
X51730000Y-59910000D01*
X51730000Y-62010000D02*
X51730000Y-62410000D01*
X51730000Y-64610000D02*
X51730000Y-65010000D01*
X51730000Y-67110000D02*
X51730000Y-67510000D01*
X51730000Y-69710000D02*
X51730000Y-70110000D01*
X51730000Y-72210000D02*
X51730000Y-72610000D01*
X51730000Y-74710000D02*
X51730000Y-75110000D01*
X51730000Y-77310000D02*
X51730000Y-77710000D01*
X72730000Y-44210000D02*
X72730000Y-44610000D01*
X72730000Y-49310000D02*
X72730000Y-49710000D01*
X72730000Y-56910000D02*
X72730000Y-57310000D01*
X72730000Y-64610000D02*
X72730000Y-65010000D01*
X72730000Y-34110000D02*
X72730000Y-34510000D01*
X72730000Y-31510000D02*
X72730000Y-31910000D01*
X72730000Y-39210000D02*
X72730000Y-39610000D01*
X72730000Y-72210000D02*
X72730000Y-72610000D01*
X72730000Y-77310000D02*
X72730000Y-77710000D01*
X72730000Y-74710000D02*
X72730000Y-75110000D01*
X72730000Y-59510000D02*
X72730000Y-59910000D01*
X72730000Y-54410000D02*
X72730000Y-54810000D01*
X72730000Y-41710000D02*
X72730000Y-42110000D01*
X72730000Y-46810000D02*
X72730000Y-47210000D01*
X72730000Y-67110000D02*
X72730000Y-67510000D01*
X72730000Y-51910000D02*
X72730000Y-52310000D01*
X72730000Y-29110000D02*
X72730000Y-29410000D01*
X72730000Y-36610000D02*
X72730000Y-37010000D01*
X72730000Y-62010000D02*
X72730000Y-62410000D01*
X72730000Y-69710000D02*
X72730000Y-70110000D01*
X72730000Y-80110000D02*
X65930000Y-80110000D01*
X60730000Y-80110000D02*
X61130000Y-80110000D01*
X63330000Y-80110000D02*
X63730000Y-80110000D01*
G04 #@! TO.C,J5*
X66790000Y-82650000D02*
X66790000Y-90070000D01*
X57670000Y-82650000D02*
X57670000Y-90070000D01*
X57670000Y-90070000D02*
X66790000Y-90070000D01*
X57670000Y-82650000D02*
X66790000Y-82650000D01*
X60854000Y-87484000D02*
X60667000Y-87671000D01*
X63542000Y-84797000D02*
X63398000Y-84941000D01*
X61062000Y-87779000D02*
X60918000Y-87923000D01*
X63793000Y-85049000D02*
X63606000Y-85235000D01*
X64290000Y-86360000D02*
G75*
G03*
X64290000Y-86360000I-2060000J0D01*
G01*
G04 #@! TO.C,D1*
X65750000Y-18860000D02*
X65750000Y-19016000D01*
X65750000Y-16544000D02*
X65750000Y-16700000D01*
X68982335Y-16701392D02*
G75*
G03*
X65750000Y-16544484I-1672335J-1078608D01*
G01*
X68982335Y-18858608D02*
G75*
G02*
X65750000Y-19015516I-1672335J1078608D01*
G01*
X68351130Y-16700163D02*
G75*
G03*
X66269039Y-16700000I-1041130J-1079837D01*
G01*
X68351130Y-18859837D02*
G75*
G02*
X66269039Y-18860000I-1041130J1079837D01*
G01*
G04 #@! TO.C,D2*
X55590000Y-16544000D02*
X55590000Y-16700000D01*
X55590000Y-18860000D02*
X55590000Y-19016000D01*
X58191130Y-18859837D02*
G75*
G02*
X56109039Y-18860000I-1041130J1079837D01*
G01*
X58191130Y-16700163D02*
G75*
G03*
X56109039Y-16700000I-1041130J-1079837D01*
G01*
X58822335Y-18858608D02*
G75*
G02*
X55590000Y-19015516I-1672335J1078608D01*
G01*
X58822335Y-16701392D02*
G75*
G03*
X55590000Y-16544484I-1672335J-1078608D01*
G01*
G04 #@! TO.C,J1*
X22000000Y-35640000D02*
G75*
G03*
X22000000Y-35640000I-1680000J0D01*
G01*
X22000000Y-30640000D02*
G75*
G03*
X22000000Y-30640000I-1680000J0D01*
G01*
X23770000Y-43200000D02*
X23770000Y-28080000D01*
X23170000Y-43200000D02*
X23170000Y-28080000D01*
X18270000Y-43200000D02*
X18270000Y-28080000D01*
X16210000Y-43200000D02*
X16210000Y-28080000D01*
X24430000Y-43200000D02*
X24430000Y-28080000D01*
X16210000Y-43200000D02*
X24430000Y-43200000D01*
X16210000Y-28080000D02*
X24430000Y-28080000D01*
X16270000Y-41890000D02*
X16270000Y-39390000D01*
X17270000Y-41890000D02*
X17270000Y-39390000D01*
X16270000Y-41890000D02*
X17270000Y-41890000D01*
X16270000Y-39390000D02*
X17270000Y-39390000D01*
X19251000Y-34365000D02*
X19497000Y-34611000D01*
X21395000Y-36510000D02*
X21594000Y-36709000D01*
X19045000Y-34570000D02*
X19256000Y-34781000D01*
X21143000Y-36668000D02*
X21389000Y-36914000D01*
X16270000Y-36890000D02*
X16270000Y-34390000D01*
X17270000Y-36890000D02*
X17270000Y-34390000D01*
X16270000Y-36890000D02*
X17270000Y-36890000D01*
X16270000Y-34390000D02*
X17270000Y-34390000D01*
X19251000Y-29365000D02*
X19497000Y-29611000D01*
X21395000Y-31510000D02*
X21594000Y-31709000D01*
X19045000Y-29570000D02*
X19256000Y-29781000D01*
X21143000Y-31668000D02*
X21389000Y-31914000D01*
X16270000Y-31890000D02*
X16270000Y-29390000D01*
X17270000Y-31890000D02*
X17270000Y-29390000D01*
X16270000Y-31890000D02*
X17270000Y-31890000D01*
X16270000Y-29390000D02*
X17270000Y-29390000D01*
X23830000Y-43440000D02*
X24670000Y-43440000D01*
X24670000Y-43440000D02*
X24670000Y-42840000D01*
X22000511Y-40611493D02*
G75*
G02*
X21607000Y-41721000I-1680511J-28507D01*
G01*
X21399734Y-41928063D02*
G75*
G02*
X19239000Y-41927000I-1079734J1288063D01*
G01*
X19032922Y-41719908D02*
G75*
G02*
X19033000Y-39560000I1287078J1079908D01*
G01*
X19240092Y-39352922D02*
G75*
G02*
X21400000Y-39353000I1079908J-1287078D01*
G01*
X21606955Y-39560117D02*
G75*
G02*
X22000000Y-40640000I-1286955J-1079883D01*
G01*
G04 #@! TO.C,J2*
X24670000Y-59950000D02*
X24670000Y-59350000D01*
X23830000Y-59950000D02*
X24670000Y-59950000D01*
X16270000Y-45900000D02*
X17270000Y-45900000D01*
X16270000Y-48400000D02*
X17270000Y-48400000D01*
X17270000Y-48400000D02*
X17270000Y-45900000D01*
X16270000Y-48400000D02*
X16270000Y-45900000D01*
X21143000Y-48178000D02*
X21389000Y-48424000D01*
X19045000Y-46080000D02*
X19256000Y-46291000D01*
X21395000Y-48020000D02*
X21594000Y-48219000D01*
X19251000Y-45875000D02*
X19497000Y-46121000D01*
X16270000Y-50900000D02*
X17270000Y-50900000D01*
X16270000Y-53400000D02*
X17270000Y-53400000D01*
X17270000Y-53400000D02*
X17270000Y-50900000D01*
X16270000Y-53400000D02*
X16270000Y-50900000D01*
X21143000Y-53178000D02*
X21389000Y-53424000D01*
X19045000Y-51080000D02*
X19256000Y-51291000D01*
X21395000Y-53020000D02*
X21594000Y-53219000D01*
X19251000Y-50875000D02*
X19497000Y-51121000D01*
X16270000Y-55900000D02*
X17270000Y-55900000D01*
X16270000Y-58400000D02*
X17270000Y-58400000D01*
X17270000Y-58400000D02*
X17270000Y-55900000D01*
X16270000Y-58400000D02*
X16270000Y-55900000D01*
X16210000Y-44590000D02*
X24430000Y-44590000D01*
X16210000Y-59710000D02*
X24430000Y-59710000D01*
X24430000Y-59710000D02*
X24430000Y-44590000D01*
X16210000Y-59710000D02*
X16210000Y-44590000D01*
X18270000Y-59710000D02*
X18270000Y-44590000D01*
X23170000Y-59710000D02*
X23170000Y-44590000D01*
X23770000Y-59710000D02*
X23770000Y-44590000D01*
X22000000Y-47150000D02*
G75*
G03*
X22000000Y-47150000I-1680000J0D01*
G01*
X22000000Y-52150000D02*
G75*
G03*
X22000000Y-52150000I-1680000J0D01*
G01*
X21606955Y-56070117D02*
G75*
G02*
X22000000Y-57150000I-1286955J-1079883D01*
G01*
X19240092Y-55862922D02*
G75*
G02*
X21400000Y-55863000I1079908J-1287078D01*
G01*
X19032922Y-58229908D02*
G75*
G02*
X19033000Y-56070000I1287078J1079908D01*
G01*
X21399734Y-58438063D02*
G75*
G02*
X19239000Y-58437000I-1079734J1288063D01*
G01*
X22000511Y-57121493D02*
G75*
G02*
X21607000Y-58231000I-1680511J-28507D01*
G01*
G04 #@! TO.C,J3*
X24670000Y-76460000D02*
X24670000Y-75860000D01*
X23830000Y-76460000D02*
X24670000Y-76460000D01*
X16270000Y-62410000D02*
X17270000Y-62410000D01*
X16270000Y-64910000D02*
X17270000Y-64910000D01*
X17270000Y-64910000D02*
X17270000Y-62410000D01*
X16270000Y-64910000D02*
X16270000Y-62410000D01*
X21143000Y-64688000D02*
X21389000Y-64934000D01*
X19045000Y-62590000D02*
X19256000Y-62801000D01*
X21395000Y-64530000D02*
X21594000Y-64729000D01*
X19251000Y-62385000D02*
X19497000Y-62631000D01*
X16270000Y-67410000D02*
X17270000Y-67410000D01*
X16270000Y-69910000D02*
X17270000Y-69910000D01*
X17270000Y-69910000D02*
X17270000Y-67410000D01*
X16270000Y-69910000D02*
X16270000Y-67410000D01*
X21143000Y-69688000D02*
X21389000Y-69934000D01*
X19045000Y-67590000D02*
X19256000Y-67801000D01*
X21395000Y-69530000D02*
X21594000Y-69729000D01*
X19251000Y-67385000D02*
X19497000Y-67631000D01*
X16270000Y-72410000D02*
X17270000Y-72410000D01*
X16270000Y-74910000D02*
X17270000Y-74910000D01*
X17270000Y-74910000D02*
X17270000Y-72410000D01*
X16270000Y-74910000D02*
X16270000Y-72410000D01*
X16210000Y-61100000D02*
X24430000Y-61100000D01*
X16210000Y-76220000D02*
X24430000Y-76220000D01*
X24430000Y-76220000D02*
X24430000Y-61100000D01*
X16210000Y-76220000D02*
X16210000Y-61100000D01*
X18270000Y-76220000D02*
X18270000Y-61100000D01*
X23170000Y-76220000D02*
X23170000Y-61100000D01*
X23770000Y-76220000D02*
X23770000Y-61100000D01*
X22000000Y-63660000D02*
G75*
G03*
X22000000Y-63660000I-1680000J0D01*
G01*
X22000000Y-68660000D02*
G75*
G03*
X22000000Y-68660000I-1680000J0D01*
G01*
X21606955Y-72580117D02*
G75*
G02*
X22000000Y-73660000I-1286955J-1079883D01*
G01*
X19240092Y-72372922D02*
G75*
G02*
X21400000Y-72373000I1079908J-1287078D01*
G01*
X19032922Y-74739908D02*
G75*
G02*
X19033000Y-72580000I1287078J1079908D01*
G01*
X21399734Y-74948063D02*
G75*
G02*
X19239000Y-74947000I-1079734J1288063D01*
G01*
X22000511Y-73631493D02*
G75*
G02*
X21607000Y-74741000I-1680511J-28507D01*
G01*
G04 #@! TO.C,J4*
X24670000Y-89160000D02*
X24670000Y-88560000D01*
X23830000Y-89160000D02*
X24670000Y-89160000D01*
X16270000Y-80110000D02*
X17270000Y-80110000D01*
X16270000Y-82610000D02*
X17270000Y-82610000D01*
X17270000Y-82610000D02*
X17270000Y-80110000D01*
X16270000Y-82610000D02*
X16270000Y-80110000D01*
X21143000Y-82388000D02*
X21389000Y-82634000D01*
X19045000Y-80290000D02*
X19256000Y-80501000D01*
X21395000Y-82230000D02*
X21594000Y-82429000D01*
X19251000Y-80085000D02*
X19497000Y-80331000D01*
X16270000Y-85110000D02*
X17270000Y-85110000D01*
X16270000Y-87610000D02*
X17270000Y-87610000D01*
X17270000Y-87610000D02*
X17270000Y-85110000D01*
X16270000Y-87610000D02*
X16270000Y-85110000D01*
X16210000Y-78800000D02*
X24430000Y-78800000D01*
X16210000Y-88920000D02*
X24430000Y-88920000D01*
X24430000Y-88920000D02*
X24430000Y-78800000D01*
X16210000Y-88920000D02*
X16210000Y-78800000D01*
X18270000Y-88920000D02*
X18270000Y-78800000D01*
X23170000Y-88920000D02*
X23170000Y-78800000D01*
X23770000Y-88920000D02*
X23770000Y-78800000D01*
X22000000Y-81360000D02*
G75*
G03*
X22000000Y-81360000I-1680000J0D01*
G01*
X21606955Y-85280117D02*
G75*
G02*
X22000000Y-86360000I-1286955J-1079883D01*
G01*
X19240092Y-85072922D02*
G75*
G02*
X21400000Y-85073000I1079908J-1287078D01*
G01*
X19032922Y-87439908D02*
G75*
G02*
X19033000Y-85280000I1287078J1079908D01*
G01*
X21399734Y-87648063D02*
G75*
G02*
X19239000Y-87647000I-1079734J1288063D01*
G01*
X22000511Y-86331493D02*
G75*
G02*
X21607000Y-87441000I-1680511J-28507D01*
G01*
G04 #@! TO.C,J6*
X110690000Y-19730000D02*
X110690000Y-20130000D01*
X111330000Y-19730000D02*
X110690000Y-19730000D01*
X117670000Y-25750000D02*
X110930000Y-25750000D01*
X117670000Y-19970000D02*
X110930000Y-19970000D01*
X110930000Y-19970000D02*
X110930000Y-25750000D01*
X117670000Y-19970000D02*
X117670000Y-25750000D01*
X116550000Y-19970000D02*
X116550000Y-25750000D01*
X111450000Y-19970000D02*
X111450000Y-25750000D01*
G04 #@! TO.C,J7*
X111450000Y-27590000D02*
X111450000Y-33370000D01*
X116550000Y-27590000D02*
X116550000Y-33370000D01*
X117670000Y-27590000D02*
X117670000Y-33370000D01*
X110930000Y-27590000D02*
X110930000Y-33370000D01*
X117670000Y-27590000D02*
X110930000Y-27590000D01*
X117670000Y-33370000D02*
X110930000Y-33370000D01*
X111330000Y-27350000D02*
X110690000Y-27350000D01*
X110690000Y-27350000D02*
X110690000Y-27750000D01*
G04 #@! TO.C,J8*
X110690000Y-34970000D02*
X110690000Y-35370000D01*
X111330000Y-34970000D02*
X110690000Y-34970000D01*
X117670000Y-40990000D02*
X110930000Y-40990000D01*
X117670000Y-35210000D02*
X110930000Y-35210000D01*
X110930000Y-35210000D02*
X110930000Y-40990000D01*
X117670000Y-35210000D02*
X117670000Y-40990000D01*
X116550000Y-35210000D02*
X116550000Y-40990000D01*
X111450000Y-35210000D02*
X111450000Y-40990000D01*
G04 #@! TO.C,J9*
X111450000Y-42830000D02*
X111450000Y-48610000D01*
X116550000Y-42830000D02*
X116550000Y-48610000D01*
X117670000Y-42830000D02*
X117670000Y-48610000D01*
X110930000Y-42830000D02*
X110930000Y-48610000D01*
X117670000Y-42830000D02*
X110930000Y-42830000D01*
X117670000Y-48610000D02*
X110930000Y-48610000D01*
X111330000Y-42590000D02*
X110690000Y-42590000D01*
X110690000Y-42590000D02*
X110690000Y-42990000D01*
G04 #@! TO.C,J10*
X110690000Y-60370000D02*
X110690000Y-60770000D01*
X111330000Y-60370000D02*
X110690000Y-60370000D01*
X117670000Y-66390000D02*
X110930000Y-66390000D01*
X117670000Y-60610000D02*
X110930000Y-60610000D01*
X110930000Y-60610000D02*
X110930000Y-66390000D01*
X117670000Y-60610000D02*
X117670000Y-66390000D01*
X116550000Y-60610000D02*
X116550000Y-66390000D01*
X111450000Y-60610000D02*
X111450000Y-66390000D01*
G04 #@! TO.C,J11*
X111450000Y-68230000D02*
X111450000Y-74010000D01*
X116550000Y-68230000D02*
X116550000Y-74010000D01*
X117670000Y-68230000D02*
X117670000Y-74010000D01*
X110930000Y-68230000D02*
X110930000Y-74010000D01*
X117670000Y-68230000D02*
X110930000Y-68230000D01*
X117670000Y-74010000D02*
X110930000Y-74010000D01*
X111330000Y-67990000D02*
X110690000Y-67990000D01*
X110690000Y-67990000D02*
X110690000Y-68390000D01*
G04 #@! TO.C,J12*
X110690000Y-75610000D02*
X110690000Y-76010000D01*
X111330000Y-75610000D02*
X110690000Y-75610000D01*
X117670000Y-81630000D02*
X110930000Y-81630000D01*
X117670000Y-75850000D02*
X110930000Y-75850000D01*
X110930000Y-75850000D02*
X110930000Y-81630000D01*
X117670000Y-75850000D02*
X117670000Y-81630000D01*
X116550000Y-75850000D02*
X116550000Y-81630000D01*
X111450000Y-75850000D02*
X111450000Y-81630000D01*
G04 #@! TO.C,J13*
X111450000Y-83470000D02*
X111450000Y-89250000D01*
X116550000Y-83470000D02*
X116550000Y-89250000D01*
X117670000Y-83470000D02*
X117670000Y-89250000D01*
X110930000Y-83470000D02*
X110930000Y-89250000D01*
X117670000Y-83470000D02*
X110930000Y-83470000D01*
X117670000Y-89250000D02*
X110930000Y-89250000D01*
X111330000Y-83230000D02*
X110690000Y-83230000D01*
X110690000Y-83230000D02*
X110690000Y-83630000D01*
G04 #@! TO.C,R1*
X39910000Y-35155000D02*
X39910000Y-34825000D01*
X39910000Y-34825000D02*
X46450000Y-34825000D01*
X46450000Y-34825000D02*
X46450000Y-35155000D01*
X39910000Y-37235000D02*
X39910000Y-37565000D01*
X39910000Y-37565000D02*
X46450000Y-37565000D01*
X46450000Y-37565000D02*
X46450000Y-37235000D01*
G04 #@! TO.C,R2*
X46450000Y-42010000D02*
X46450000Y-41680000D01*
X39910000Y-42010000D02*
X46450000Y-42010000D01*
X39910000Y-41680000D02*
X39910000Y-42010000D01*
X46450000Y-39270000D02*
X46450000Y-39600000D01*
X39910000Y-39270000D02*
X46450000Y-39270000D01*
X39910000Y-39600000D02*
X39910000Y-39270000D01*
G04 #@! TO.C,R3*
X39910000Y-43410000D02*
X39910000Y-43080000D01*
X39910000Y-43080000D02*
X46450000Y-43080000D01*
X46450000Y-43080000D02*
X46450000Y-43410000D01*
X39910000Y-45490000D02*
X39910000Y-45820000D01*
X39910000Y-45820000D02*
X46450000Y-45820000D01*
X46450000Y-45820000D02*
X46450000Y-45490000D01*
G04 #@! TO.C,R4*
X46450000Y-50900000D02*
X46450000Y-50570000D01*
X39910000Y-50900000D02*
X46450000Y-50900000D01*
X39910000Y-50570000D02*
X39910000Y-50900000D01*
X46450000Y-48160000D02*
X46450000Y-48490000D01*
X39910000Y-48160000D02*
X46450000Y-48160000D01*
X39910000Y-48490000D02*
X39910000Y-48160000D01*
G04 #@! TO.C,R5*
X39910000Y-52300000D02*
X39910000Y-51970000D01*
X39910000Y-51970000D02*
X46450000Y-51970000D01*
X46450000Y-51970000D02*
X46450000Y-52300000D01*
X39910000Y-54380000D02*
X39910000Y-54710000D01*
X39910000Y-54710000D02*
X46450000Y-54710000D01*
X46450000Y-54710000D02*
X46450000Y-54380000D01*
G04 #@! TO.C,R6*
X46450000Y-58520000D02*
X46450000Y-58190000D01*
X39910000Y-58520000D02*
X46450000Y-58520000D01*
X39910000Y-58190000D02*
X39910000Y-58520000D01*
X46450000Y-55780000D02*
X46450000Y-56110000D01*
X39910000Y-55780000D02*
X46450000Y-55780000D01*
X39910000Y-56110000D02*
X39910000Y-55780000D01*
G04 #@! TO.C,R7*
X39910000Y-61190000D02*
X39910000Y-60860000D01*
X39910000Y-60860000D02*
X46450000Y-60860000D01*
X46450000Y-60860000D02*
X46450000Y-61190000D01*
X39910000Y-63270000D02*
X39910000Y-63600000D01*
X39910000Y-63600000D02*
X46450000Y-63600000D01*
X46450000Y-63600000D02*
X46450000Y-63270000D01*
G04 #@! TO.C,R8*
X46450000Y-67410000D02*
X46450000Y-67080000D01*
X39910000Y-67410000D02*
X46450000Y-67410000D01*
X39910000Y-67080000D02*
X39910000Y-67410000D01*
X46450000Y-64670000D02*
X46450000Y-65000000D01*
X39910000Y-64670000D02*
X46450000Y-64670000D01*
X39910000Y-65000000D02*
X39910000Y-64670000D01*
G04 #@! TO.C,R9*
X39910000Y-68810000D02*
X39910000Y-68480000D01*
X39910000Y-68480000D02*
X46450000Y-68480000D01*
X46450000Y-68480000D02*
X46450000Y-68810000D01*
X39910000Y-70890000D02*
X39910000Y-71220000D01*
X39910000Y-71220000D02*
X46450000Y-71220000D01*
X46450000Y-71220000D02*
X46450000Y-70890000D01*
G04 #@! TO.C,R10*
X35020000Y-31520000D02*
X35020000Y-31850000D01*
X35020000Y-31850000D02*
X28480000Y-31850000D01*
X28480000Y-31850000D02*
X28480000Y-31520000D01*
X35020000Y-29440000D02*
X35020000Y-29110000D01*
X35020000Y-29110000D02*
X28480000Y-29110000D01*
X28480000Y-29110000D02*
X28480000Y-29440000D01*
G04 #@! TO.C,R11*
X28480000Y-34190000D02*
X28480000Y-34520000D01*
X35020000Y-34190000D02*
X28480000Y-34190000D01*
X35020000Y-34520000D02*
X35020000Y-34190000D01*
X28480000Y-36930000D02*
X28480000Y-36600000D01*
X35020000Y-36930000D02*
X28480000Y-36930000D01*
X35020000Y-36600000D02*
X35020000Y-36930000D01*
G04 #@! TO.C,R12*
X28480000Y-39270000D02*
X28480000Y-39600000D01*
X35020000Y-39270000D02*
X28480000Y-39270000D01*
X35020000Y-39600000D02*
X35020000Y-39270000D01*
X28480000Y-42010000D02*
X28480000Y-41680000D01*
X35020000Y-42010000D02*
X28480000Y-42010000D01*
X35020000Y-41680000D02*
X35020000Y-42010000D01*
G04 #@! TO.C,R13*
X35020000Y-48030000D02*
X35020000Y-48360000D01*
X35020000Y-48360000D02*
X28480000Y-48360000D01*
X28480000Y-48360000D02*
X28480000Y-48030000D01*
X35020000Y-45950000D02*
X35020000Y-45620000D01*
X35020000Y-45620000D02*
X28480000Y-45620000D01*
X28480000Y-45620000D02*
X28480000Y-45950000D01*
G04 #@! TO.C,R14*
X28480000Y-50700000D02*
X28480000Y-51030000D01*
X35020000Y-50700000D02*
X28480000Y-50700000D01*
X35020000Y-51030000D02*
X35020000Y-50700000D01*
X28480000Y-53440000D02*
X28480000Y-53110000D01*
X35020000Y-53440000D02*
X28480000Y-53440000D01*
X35020000Y-53110000D02*
X35020000Y-53440000D01*
G04 #@! TO.C,R15*
X28480000Y-55780000D02*
X28480000Y-56110000D01*
X35020000Y-55780000D02*
X28480000Y-55780000D01*
X35020000Y-56110000D02*
X35020000Y-55780000D01*
X28480000Y-58520000D02*
X28480000Y-58190000D01*
X35020000Y-58520000D02*
X28480000Y-58520000D01*
X35020000Y-58190000D02*
X35020000Y-58520000D01*
G04 #@! TO.C,R16*
X35020000Y-64540000D02*
X35020000Y-64870000D01*
X35020000Y-64870000D02*
X28480000Y-64870000D01*
X28480000Y-64870000D02*
X28480000Y-64540000D01*
X35020000Y-62460000D02*
X35020000Y-62130000D01*
X35020000Y-62130000D02*
X28480000Y-62130000D01*
X28480000Y-62130000D02*
X28480000Y-62460000D01*
G04 #@! TO.C,R17*
X28480000Y-67210000D02*
X28480000Y-67540000D01*
X35020000Y-67210000D02*
X28480000Y-67210000D01*
X35020000Y-67540000D02*
X35020000Y-67210000D01*
X28480000Y-69950000D02*
X28480000Y-69620000D01*
X35020000Y-69950000D02*
X28480000Y-69950000D01*
X35020000Y-69620000D02*
X35020000Y-69950000D01*
G04 #@! TO.C,R18*
X35020000Y-74700000D02*
X35020000Y-75030000D01*
X35020000Y-75030000D02*
X28480000Y-75030000D01*
X28480000Y-75030000D02*
X28480000Y-74700000D01*
X35020000Y-72620000D02*
X35020000Y-72290000D01*
X35020000Y-72290000D02*
X28480000Y-72290000D01*
X28480000Y-72290000D02*
X28480000Y-72620000D01*
G04 #@! TO.C,R19*
X71350000Y-24860000D02*
X71020000Y-24860000D01*
X71020000Y-24860000D02*
X71020000Y-18320000D01*
X71020000Y-18320000D02*
X71350000Y-18320000D01*
X73430000Y-24860000D02*
X73760000Y-24860000D01*
X73760000Y-24860000D02*
X73760000Y-18320000D01*
X73760000Y-18320000D02*
X73430000Y-18320000D01*
G04 #@! TO.C,R20*
X63600000Y-18320000D02*
X63270000Y-18320000D01*
X63600000Y-24860000D02*
X63600000Y-18320000D01*
X63270000Y-24860000D02*
X63600000Y-24860000D01*
X60860000Y-18320000D02*
X61190000Y-18320000D01*
X60860000Y-24860000D02*
X60860000Y-18320000D01*
X61190000Y-24860000D02*
X60860000Y-24860000D01*
G04 #@! TO.C,R21*
X106140000Y-22630000D02*
X106140000Y-22960000D01*
X106140000Y-22960000D02*
X99600000Y-22960000D01*
X99600000Y-22960000D02*
X99600000Y-22630000D01*
X106140000Y-20550000D02*
X106140000Y-20220000D01*
X106140000Y-20220000D02*
X99600000Y-20220000D01*
X99600000Y-20220000D02*
X99600000Y-20550000D01*
G04 #@! TO.C,R22*
X99600000Y-27840000D02*
X99600000Y-28170000D01*
X106140000Y-27840000D02*
X99600000Y-27840000D01*
X106140000Y-28170000D02*
X106140000Y-27840000D01*
X99600000Y-30580000D02*
X99600000Y-30250000D01*
X106140000Y-30580000D02*
X99600000Y-30580000D01*
X106140000Y-30250000D02*
X106140000Y-30580000D01*
G04 #@! TO.C,R23*
X106140000Y-37870000D02*
X106140000Y-38200000D01*
X106140000Y-38200000D02*
X99600000Y-38200000D01*
X99600000Y-38200000D02*
X99600000Y-37870000D01*
X106140000Y-35790000D02*
X106140000Y-35460000D01*
X106140000Y-35460000D02*
X99600000Y-35460000D01*
X99600000Y-35460000D02*
X99600000Y-35790000D01*
G04 #@! TO.C,R24*
X99600000Y-43080000D02*
X99600000Y-43410000D01*
X106140000Y-43080000D02*
X99600000Y-43080000D01*
X106140000Y-43410000D02*
X106140000Y-43080000D01*
X99600000Y-45820000D02*
X99600000Y-45490000D01*
X106140000Y-45820000D02*
X99600000Y-45820000D01*
X106140000Y-45490000D02*
X106140000Y-45820000D01*
G04 #@! TO.C,R25*
X106140000Y-63270000D02*
X106140000Y-63600000D01*
X106140000Y-63600000D02*
X99600000Y-63600000D01*
X99600000Y-63600000D02*
X99600000Y-63270000D01*
X106140000Y-61190000D02*
X106140000Y-60860000D01*
X106140000Y-60860000D02*
X99600000Y-60860000D01*
X99600000Y-60860000D02*
X99600000Y-61190000D01*
G04 #@! TO.C,R27*
X106140000Y-78510000D02*
X106140000Y-78840000D01*
X106140000Y-78840000D02*
X99600000Y-78840000D01*
X99600000Y-78840000D02*
X99600000Y-78510000D01*
X106140000Y-76430000D02*
X106140000Y-76100000D01*
X106140000Y-76100000D02*
X99600000Y-76100000D01*
X99600000Y-76100000D02*
X99600000Y-76430000D01*
G04 #@! TO.C,R28*
X99600000Y-83720000D02*
X99600000Y-84050000D01*
X106140000Y-83720000D02*
X99600000Y-83720000D01*
X106140000Y-84050000D02*
X106140000Y-83720000D01*
X99600000Y-86460000D02*
X99600000Y-86130000D01*
X106140000Y-86460000D02*
X99600000Y-86460000D01*
X106140000Y-86130000D02*
X106140000Y-86460000D01*
G04 #@! TO.C,SW1*
X44180000Y-88260000D02*
X45950000Y-88260000D01*
X45950000Y-88260000D02*
X45950000Y-79660000D01*
X45950000Y-79660000D02*
X40410000Y-79660000D01*
X40410000Y-79660000D02*
X40410000Y-88260000D01*
X40410000Y-88260000D02*
X42180000Y-88260000D01*
X42180000Y-88260000D02*
G75*
G02*
X44180000Y-88260000I1000000J0D01*
G01*
G04 #@! TO.C,SW2*
X28980000Y-88260000D02*
X30750000Y-88260000D01*
X28980000Y-79660000D02*
X28980000Y-88260000D01*
X34520000Y-79660000D02*
X28980000Y-79660000D01*
X34520000Y-88260000D02*
X34520000Y-79660000D01*
X32750000Y-88260000D02*
X34520000Y-88260000D01*
X30750000Y-88260000D02*
G75*
G02*
X32750000Y-88260000I1000000J0D01*
G01*
G04 #@! TO.C,SW3*
X84090000Y-51440000D02*
X82320000Y-51440000D01*
X82320000Y-51440000D02*
X82320000Y-60040000D01*
X82320000Y-60040000D02*
X87860000Y-60040000D01*
X87860000Y-60040000D02*
X87860000Y-51440000D01*
X87860000Y-51440000D02*
X86090000Y-51440000D01*
X86090000Y-51440000D02*
G75*
G02*
X84090000Y-51440000I-1000000J0D01*
G01*
D10*
G04 #@! TO.C,U2*
X79040000Y-22860000D02*
G75*
G03*
X79040000Y-22860000I-300000J0D01*
G01*
D12*
X77470000Y-49530000D02*
X77470000Y-21590000D01*
X95250000Y-49530000D02*
X77470000Y-49530000D01*
X95250000Y-21590000D02*
X95250000Y-49530000D01*
X77470000Y-21590000D02*
X95250000Y-21590000D01*
G04 #@! TO.C,U3*
X77470000Y-62230000D02*
X95250000Y-62230000D01*
X95250000Y-62230000D02*
X95250000Y-90170000D01*
X95250000Y-90170000D02*
X77470000Y-90170000D01*
X77470000Y-90170000D02*
X77470000Y-62230000D01*
D10*
X79040000Y-63500000D02*
G75*
G03*
X79040000Y-63500000I-300000J0D01*
G01*
G04 #@! TO.C,R26*
D11*
X102227142Y-72672380D02*
X101893809Y-72196190D01*
X101655714Y-72672380D02*
X101655714Y-71672380D01*
X102036666Y-71672380D01*
X102131904Y-71720000D01*
X102179523Y-71767619D01*
X102227142Y-71862857D01*
X102227142Y-72005714D01*
X102179523Y-72100952D01*
X102131904Y-72148571D01*
X102036666Y-72196190D01*
X101655714Y-72196190D01*
X102608095Y-71767619D02*
X102655714Y-71720000D01*
X102750952Y-71672380D01*
X102989047Y-71672380D01*
X103084285Y-71720000D01*
X103131904Y-71767619D01*
X103179523Y-71862857D01*
X103179523Y-71958095D01*
X103131904Y-72100952D01*
X102560476Y-72672380D01*
X103179523Y-72672380D01*
X104036666Y-71672380D02*
X103846190Y-71672380D01*
X103750952Y-71720000D01*
X103703333Y-71767619D01*
X103608095Y-71910476D01*
X103560476Y-72100952D01*
X103560476Y-72481904D01*
X103608095Y-72577142D01*
X103655714Y-72624761D01*
X103750952Y-72672380D01*
X103941428Y-72672380D01*
X104036666Y-72624761D01*
X104084285Y-72577142D01*
X104131904Y-72481904D01*
X104131904Y-72243809D01*
X104084285Y-72148571D01*
X104036666Y-72100952D01*
X103941428Y-72053333D01*
X103750952Y-72053333D01*
X103655714Y-72100952D01*
X103608095Y-72148571D01*
X103560476Y-72243809D01*
G04 #@! TO.C,U1*
X61468095Y-54062380D02*
X61468095Y-54871904D01*
X61515714Y-54967142D01*
X61563333Y-55014761D01*
X61658571Y-55062380D01*
X61849047Y-55062380D01*
X61944285Y-55014761D01*
X61991904Y-54967142D01*
X62039523Y-54871904D01*
X62039523Y-54062380D01*
X63039523Y-55062380D02*
X62468095Y-55062380D01*
X62753809Y-55062380D02*
X62753809Y-54062380D01*
X62658571Y-54205238D01*
X62563333Y-54300476D01*
X62468095Y-54348095D01*
X48643096Y-33131218D02*
X48562284Y-33158155D01*
X48481471Y-33238967D01*
X48427597Y-33346717D01*
X48427597Y-33454467D01*
X48454534Y-33535279D01*
X48535346Y-33669966D01*
X48616158Y-33750778D01*
X48750845Y-33831590D01*
X48831658Y-33858528D01*
X48939407Y-33858528D01*
X49047157Y-33804653D01*
X49101032Y-33750778D01*
X49154906Y-33643028D01*
X49154906Y-33589154D01*
X48966345Y-33400592D01*
X48858595Y-33508341D01*
X49451218Y-33400592D02*
X48885532Y-32834906D01*
X49101032Y-32619407D01*
X49181844Y-32592470D01*
X49235719Y-32592470D01*
X49316531Y-32619407D01*
X49397343Y-32700219D01*
X49424280Y-32781032D01*
X49424280Y-32834906D01*
X49397343Y-32915719D01*
X49181844Y-33131218D01*
X50313215Y-32538595D02*
X49989966Y-32861844D01*
X50151590Y-32700219D02*
X49585905Y-32134534D01*
X49612842Y-32269221D01*
X49612842Y-32376971D01*
X49585905Y-32457783D01*
X48643096Y-38221218D02*
X48562284Y-38248155D01*
X48481471Y-38328967D01*
X48427597Y-38436717D01*
X48427597Y-38544467D01*
X48454534Y-38625279D01*
X48535346Y-38759966D01*
X48616158Y-38840778D01*
X48750845Y-38921590D01*
X48831658Y-38948528D01*
X48939407Y-38948528D01*
X49047157Y-38894653D01*
X49101032Y-38840778D01*
X49154906Y-38733028D01*
X49154906Y-38679154D01*
X48966345Y-38490592D01*
X48858595Y-38598341D01*
X49451218Y-38490592D02*
X48885532Y-37924906D01*
X49101032Y-37709407D01*
X49181844Y-37682470D01*
X49235719Y-37682470D01*
X49316531Y-37709407D01*
X49397343Y-37790219D01*
X49424280Y-37871032D01*
X49424280Y-37924906D01*
X49397343Y-38005719D01*
X49181844Y-38221218D01*
X49478155Y-37440033D02*
X49478155Y-37386158D01*
X49505093Y-37305346D01*
X49639780Y-37170659D01*
X49720592Y-37143722D01*
X49774467Y-37143722D01*
X49855279Y-37170659D01*
X49909154Y-37224534D01*
X49963028Y-37332284D01*
X49963028Y-37978781D01*
X50313215Y-37628595D01*
X48743096Y-30601218D02*
X48662284Y-30628155D01*
X48581471Y-30708967D01*
X48527597Y-30816717D01*
X48527597Y-30924467D01*
X48554534Y-31005279D01*
X48635346Y-31139966D01*
X48716158Y-31220778D01*
X48850845Y-31301590D01*
X48931658Y-31328528D01*
X49039407Y-31328528D01*
X49147157Y-31274653D01*
X49201032Y-31220778D01*
X49254906Y-31113028D01*
X49254906Y-31059154D01*
X49066345Y-30870592D01*
X48958595Y-30978341D01*
X49551218Y-30870592D02*
X48985532Y-30304906D01*
X49201032Y-30089407D01*
X49281844Y-30062470D01*
X49335719Y-30062470D01*
X49416531Y-30089407D01*
X49497343Y-30170219D01*
X49524280Y-30251032D01*
X49524280Y-30304906D01*
X49497343Y-30385719D01*
X49281844Y-30601218D01*
X49658967Y-29631471D02*
X49712842Y-29577597D01*
X49793654Y-29550659D01*
X49847529Y-29550659D01*
X49928341Y-29577597D01*
X50063028Y-29658409D01*
X50197715Y-29793096D01*
X50278528Y-29927783D01*
X50305465Y-30008595D01*
X50305465Y-30062470D01*
X50278528Y-30143282D01*
X50224653Y-30197157D01*
X50143841Y-30224094D01*
X50089966Y-30224094D01*
X50009154Y-30197157D01*
X49874467Y-30116345D01*
X49739780Y-29981658D01*
X49658967Y-29846971D01*
X49632030Y-29766158D01*
X49632030Y-29712284D01*
X49658967Y-29631471D01*
X48743096Y-40761218D02*
X48662284Y-40788155D01*
X48581471Y-40868967D01*
X48527597Y-40976717D01*
X48527597Y-41084467D01*
X48554534Y-41165279D01*
X48635346Y-41299966D01*
X48716158Y-41380778D01*
X48850845Y-41461590D01*
X48931658Y-41488528D01*
X49039407Y-41488528D01*
X49147157Y-41434653D01*
X49201032Y-41380778D01*
X49254906Y-41273028D01*
X49254906Y-41219154D01*
X49066345Y-41030592D01*
X48958595Y-41138341D01*
X49551218Y-41030592D02*
X48985532Y-40464906D01*
X49201032Y-40249407D01*
X49281844Y-40222470D01*
X49335719Y-40222470D01*
X49416531Y-40249407D01*
X49497343Y-40330219D01*
X49524280Y-40411032D01*
X49524280Y-40464906D01*
X49497343Y-40545719D01*
X49281844Y-40761218D01*
X49497343Y-39953096D02*
X49847529Y-39602910D01*
X49874467Y-40006971D01*
X49955279Y-39926158D01*
X50036091Y-39899221D01*
X50089966Y-39899221D01*
X50170778Y-39926158D01*
X50305465Y-40060845D01*
X50332402Y-40141658D01*
X50332402Y-40195532D01*
X50305465Y-40276345D01*
X50143841Y-40437969D01*
X50063028Y-40464906D01*
X50009154Y-40464906D01*
X48743096Y-43301218D02*
X48662284Y-43328155D01*
X48581471Y-43408967D01*
X48527597Y-43516717D01*
X48527597Y-43624467D01*
X48554534Y-43705279D01*
X48635346Y-43839966D01*
X48716158Y-43920778D01*
X48850845Y-44001590D01*
X48931658Y-44028528D01*
X49039407Y-44028528D01*
X49147157Y-43974653D01*
X49201032Y-43920778D01*
X49254906Y-43813028D01*
X49254906Y-43759154D01*
X49066345Y-43570592D01*
X48958595Y-43678341D01*
X49551218Y-43570592D02*
X48985532Y-43004906D01*
X49201032Y-42789407D01*
X49281844Y-42762470D01*
X49335719Y-42762470D01*
X49416531Y-42789407D01*
X49497343Y-42870219D01*
X49524280Y-42951032D01*
X49524280Y-43004906D01*
X49497343Y-43085719D01*
X49281844Y-43301218D01*
X49982216Y-42385346D02*
X50359340Y-42762470D01*
X49632030Y-42304534D02*
X49901404Y-42843282D01*
X50251590Y-42493096D01*
X48743096Y-45841218D02*
X48662284Y-45868155D01*
X48581471Y-45948967D01*
X48527597Y-46056717D01*
X48527597Y-46164467D01*
X48554534Y-46245279D01*
X48635346Y-46379966D01*
X48716158Y-46460778D01*
X48850845Y-46541590D01*
X48931658Y-46568528D01*
X49039407Y-46568528D01*
X49147157Y-46514653D01*
X49201032Y-46460778D01*
X49254906Y-46353028D01*
X49254906Y-46299154D01*
X49066345Y-46110592D01*
X48958595Y-46218341D01*
X49551218Y-46110592D02*
X48985532Y-45544906D01*
X49201032Y-45329407D01*
X49281844Y-45302470D01*
X49335719Y-45302470D01*
X49416531Y-45329407D01*
X49497343Y-45410219D01*
X49524280Y-45491032D01*
X49524280Y-45544906D01*
X49497343Y-45625719D01*
X49281844Y-45841218D01*
X49820592Y-44709847D02*
X49551218Y-44979221D01*
X49793654Y-45275532D01*
X49793654Y-45221658D01*
X49820592Y-45140845D01*
X49955279Y-45006158D01*
X50036091Y-44979221D01*
X50089966Y-44979221D01*
X50170778Y-45006158D01*
X50305465Y-45140845D01*
X50332402Y-45221658D01*
X50332402Y-45275532D01*
X50305465Y-45356345D01*
X50170778Y-45491032D01*
X50089966Y-45517969D01*
X50036091Y-45517969D01*
X48743096Y-50921218D02*
X48662284Y-50948155D01*
X48581471Y-51028967D01*
X48527597Y-51136717D01*
X48527597Y-51244467D01*
X48554534Y-51325279D01*
X48635346Y-51459966D01*
X48716158Y-51540778D01*
X48850845Y-51621590D01*
X48931658Y-51648528D01*
X49039407Y-51648528D01*
X49147157Y-51594653D01*
X49201032Y-51540778D01*
X49254906Y-51433028D01*
X49254906Y-51379154D01*
X49066345Y-51190592D01*
X48958595Y-51298341D01*
X49551218Y-51190592D02*
X48985532Y-50624906D01*
X49201032Y-50409407D01*
X49281844Y-50382470D01*
X49335719Y-50382470D01*
X49416531Y-50409407D01*
X49497343Y-50490219D01*
X49524280Y-50571032D01*
X49524280Y-50624906D01*
X49497343Y-50705719D01*
X49281844Y-50921218D01*
X49793654Y-49816784D02*
X49685905Y-49924534D01*
X49658967Y-50005346D01*
X49658967Y-50059221D01*
X49685905Y-50193908D01*
X49766717Y-50328595D01*
X49982216Y-50544094D01*
X50063028Y-50571032D01*
X50116903Y-50571032D01*
X50197715Y-50544094D01*
X50305465Y-50436345D01*
X50332402Y-50355532D01*
X50332402Y-50301658D01*
X50305465Y-50220845D01*
X50170778Y-50086158D01*
X50089966Y-50059221D01*
X50036091Y-50059221D01*
X49955279Y-50086158D01*
X49847529Y-50193908D01*
X49820592Y-50274720D01*
X49820592Y-50328595D01*
X49847529Y-50409407D01*
X48843096Y-53431218D02*
X48762284Y-53458155D01*
X48681471Y-53538967D01*
X48627597Y-53646717D01*
X48627597Y-53754467D01*
X48654534Y-53835279D01*
X48735346Y-53969966D01*
X48816158Y-54050778D01*
X48950845Y-54131590D01*
X49031658Y-54158528D01*
X49139407Y-54158528D01*
X49247157Y-54104653D01*
X49301032Y-54050778D01*
X49354906Y-53943028D01*
X49354906Y-53889154D01*
X49166345Y-53700592D01*
X49058595Y-53808341D01*
X49651218Y-53700592D02*
X49085532Y-53134906D01*
X49301032Y-52919407D01*
X49381844Y-52892470D01*
X49435719Y-52892470D01*
X49516531Y-52919407D01*
X49597343Y-53000219D01*
X49624280Y-53081032D01*
X49624280Y-53134906D01*
X49597343Y-53215719D01*
X49381844Y-53431218D01*
X49597343Y-52623096D02*
X49974467Y-52245972D01*
X50297715Y-53054094D01*
X48743096Y-56001218D02*
X48662284Y-56028155D01*
X48581471Y-56108967D01*
X48527597Y-56216717D01*
X48527597Y-56324467D01*
X48554534Y-56405279D01*
X48635346Y-56539966D01*
X48716158Y-56620778D01*
X48850845Y-56701590D01*
X48931658Y-56728528D01*
X49039407Y-56728528D01*
X49147157Y-56674653D01*
X49201032Y-56620778D01*
X49254906Y-56513028D01*
X49254906Y-56459154D01*
X49066345Y-56270592D01*
X48958595Y-56378341D01*
X49551218Y-56270592D02*
X48985532Y-55704906D01*
X49201032Y-55489407D01*
X49281844Y-55462470D01*
X49335719Y-55462470D01*
X49416531Y-55489407D01*
X49497343Y-55570219D01*
X49524280Y-55651032D01*
X49524280Y-55704906D01*
X49497343Y-55785719D01*
X49281844Y-56001218D01*
X49874467Y-55300845D02*
X49793654Y-55327783D01*
X49739780Y-55327783D01*
X49658967Y-55300845D01*
X49632030Y-55273908D01*
X49605093Y-55193096D01*
X49605093Y-55139221D01*
X49632030Y-55058409D01*
X49739780Y-54950659D01*
X49820592Y-54923722D01*
X49874467Y-54923722D01*
X49955279Y-54950659D01*
X49982216Y-54977597D01*
X50009154Y-55058409D01*
X50009154Y-55112284D01*
X49982216Y-55193096D01*
X49874467Y-55300845D01*
X49847529Y-55381658D01*
X49847529Y-55435532D01*
X49874467Y-55516345D01*
X49982216Y-55624094D01*
X50063028Y-55651032D01*
X50116903Y-55651032D01*
X50197715Y-55624094D01*
X50305465Y-55516345D01*
X50332402Y-55435532D01*
X50332402Y-55381658D01*
X50305465Y-55300845D01*
X50197715Y-55193096D01*
X50116903Y-55166158D01*
X50063028Y-55166158D01*
X49982216Y-55193096D01*
X48743096Y-58541218D02*
X48662284Y-58568155D01*
X48581471Y-58648967D01*
X48527597Y-58756717D01*
X48527597Y-58864467D01*
X48554534Y-58945279D01*
X48635346Y-59079966D01*
X48716158Y-59160778D01*
X48850845Y-59241590D01*
X48931658Y-59268528D01*
X49039407Y-59268528D01*
X49147157Y-59214653D01*
X49201032Y-59160778D01*
X49254906Y-59053028D01*
X49254906Y-58999154D01*
X49066345Y-58810592D01*
X48958595Y-58918341D01*
X49551218Y-58810592D02*
X48985532Y-58244906D01*
X49201032Y-58029407D01*
X49281844Y-58002470D01*
X49335719Y-58002470D01*
X49416531Y-58029407D01*
X49497343Y-58110219D01*
X49524280Y-58191032D01*
X49524280Y-58244906D01*
X49497343Y-58325719D01*
X49281844Y-58541218D01*
X50143841Y-58217969D02*
X50251590Y-58110219D01*
X50278528Y-58029407D01*
X50278528Y-57975532D01*
X50251590Y-57840845D01*
X50170778Y-57706158D01*
X49955279Y-57490659D01*
X49874467Y-57463722D01*
X49820592Y-57463722D01*
X49739780Y-57490659D01*
X49632030Y-57598409D01*
X49605093Y-57679221D01*
X49605093Y-57733096D01*
X49632030Y-57813908D01*
X49766717Y-57948595D01*
X49847529Y-57975532D01*
X49901404Y-57975532D01*
X49982216Y-57948595D01*
X50089966Y-57840845D01*
X50116903Y-57760033D01*
X50116903Y-57706158D01*
X50089966Y-57625346D01*
X48219722Y-63890592D02*
X48138910Y-63917529D01*
X48058097Y-63998341D01*
X48004223Y-64106091D01*
X48004223Y-64213841D01*
X48031160Y-64294653D01*
X48111972Y-64429340D01*
X48192784Y-64510152D01*
X48327471Y-64590964D01*
X48408284Y-64617902D01*
X48516033Y-64617902D01*
X48623783Y-64564027D01*
X48677658Y-64510152D01*
X48731532Y-64402402D01*
X48731532Y-64348528D01*
X48542971Y-64159966D01*
X48435221Y-64267715D01*
X49027844Y-64159966D02*
X48462158Y-63594280D01*
X48677658Y-63378781D01*
X48758470Y-63351844D01*
X48812345Y-63351844D01*
X48893157Y-63378781D01*
X48973969Y-63459593D01*
X49000906Y-63540406D01*
X49000906Y-63594280D01*
X48973969Y-63675093D01*
X48758470Y-63890592D01*
X49889841Y-63297969D02*
X49566592Y-63621218D01*
X49728216Y-63459593D02*
X49162531Y-62893908D01*
X49189468Y-63028595D01*
X49189468Y-63136345D01*
X49162531Y-63217157D01*
X49674341Y-62382097D02*
X49728216Y-62328223D01*
X49809028Y-62301285D01*
X49862903Y-62301285D01*
X49943715Y-62328223D01*
X50078402Y-62409035D01*
X50213089Y-62543722D01*
X50293902Y-62678409D01*
X50320839Y-62759221D01*
X50320839Y-62813096D01*
X50293902Y-62893908D01*
X50240027Y-62947783D01*
X50159215Y-62974720D01*
X50105340Y-62974720D01*
X50024528Y-62947783D01*
X49889841Y-62866971D01*
X49755154Y-62732284D01*
X49674341Y-62597597D01*
X49647404Y-62516784D01*
X49647404Y-62462910D01*
X49674341Y-62382097D01*
X48073722Y-66430592D02*
X47992910Y-66457529D01*
X47912097Y-66538341D01*
X47858223Y-66646091D01*
X47858223Y-66753841D01*
X47885160Y-66834653D01*
X47965972Y-66969340D01*
X48046784Y-67050152D01*
X48181471Y-67130964D01*
X48262284Y-67157902D01*
X48370033Y-67157902D01*
X48477783Y-67104027D01*
X48531658Y-67050152D01*
X48585532Y-66942402D01*
X48585532Y-66888528D01*
X48396971Y-66699966D01*
X48289221Y-66807715D01*
X48881844Y-66699966D02*
X48316158Y-66134280D01*
X48531658Y-65918781D01*
X48612470Y-65891844D01*
X48666345Y-65891844D01*
X48747157Y-65918781D01*
X48827969Y-65999593D01*
X48854906Y-66080406D01*
X48854906Y-66134280D01*
X48827969Y-66215093D01*
X48612470Y-66430592D01*
X49743841Y-65837969D02*
X49420592Y-66161218D01*
X49582216Y-65999593D02*
X49016531Y-65433908D01*
X49043468Y-65568595D01*
X49043468Y-65676345D01*
X49016531Y-65757157D01*
X50282589Y-65299221D02*
X49959340Y-65622470D01*
X50120964Y-65460845D02*
X49555279Y-64895160D01*
X49582216Y-65029847D01*
X49582216Y-65137597D01*
X49555279Y-65218409D01*
X48073722Y-68970592D02*
X47992910Y-68997529D01*
X47912097Y-69078341D01*
X47858223Y-69186091D01*
X47858223Y-69293841D01*
X47885160Y-69374653D01*
X47965972Y-69509340D01*
X48046784Y-69590152D01*
X48181471Y-69670964D01*
X48262284Y-69697902D01*
X48370033Y-69697902D01*
X48477783Y-69644027D01*
X48531658Y-69590152D01*
X48585532Y-69482402D01*
X48585532Y-69428528D01*
X48396971Y-69239966D01*
X48289221Y-69347715D01*
X48881844Y-69239966D02*
X48316158Y-68674280D01*
X48531658Y-68458781D01*
X48612470Y-68431844D01*
X48666345Y-68431844D01*
X48747157Y-68458781D01*
X48827969Y-68539593D01*
X48854906Y-68620406D01*
X48854906Y-68674280D01*
X48827969Y-68755093D01*
X48612470Y-68970592D01*
X49743841Y-68377969D02*
X49420592Y-68701218D01*
X49582216Y-68539593D02*
X49016531Y-67973908D01*
X49043468Y-68108595D01*
X49043468Y-68216345D01*
X49016531Y-68297157D01*
X49447529Y-67650659D02*
X49447529Y-67596784D01*
X49474467Y-67515972D01*
X49609154Y-67381285D01*
X49689966Y-67354348D01*
X49743841Y-67354348D01*
X49824653Y-67381285D01*
X49878528Y-67435160D01*
X49932402Y-67542910D01*
X49932402Y-68189407D01*
X50282589Y-67839221D01*
X48219722Y-71510592D02*
X48138910Y-71537529D01*
X48058097Y-71618341D01*
X48004223Y-71726091D01*
X48004223Y-71833841D01*
X48031160Y-71914653D01*
X48111972Y-72049340D01*
X48192784Y-72130152D01*
X48327471Y-72210964D01*
X48408284Y-72237902D01*
X48516033Y-72237902D01*
X48623783Y-72184027D01*
X48677658Y-72130152D01*
X48731532Y-72022402D01*
X48731532Y-71968528D01*
X48542971Y-71779966D01*
X48435221Y-71887715D01*
X49027844Y-71779966D02*
X48462158Y-71214280D01*
X48677658Y-70998781D01*
X48758470Y-70971844D01*
X48812345Y-70971844D01*
X48893157Y-70998781D01*
X48973969Y-71079593D01*
X49000906Y-71160406D01*
X49000906Y-71214280D01*
X48973969Y-71295093D01*
X48758470Y-71510592D01*
X49889841Y-70917969D02*
X49566592Y-71241218D01*
X49728216Y-71079593D02*
X49162531Y-70513908D01*
X49189468Y-70648595D01*
X49189468Y-70756345D01*
X49162531Y-70837157D01*
X49512717Y-70163722D02*
X49862903Y-69813536D01*
X49889841Y-70217597D01*
X49970653Y-70136784D01*
X50051465Y-70109847D01*
X50105340Y-70109847D01*
X50186152Y-70136784D01*
X50320839Y-70271471D01*
X50347776Y-70352284D01*
X50347776Y-70406158D01*
X50320839Y-70486971D01*
X50159215Y-70648595D01*
X50078402Y-70675532D01*
X50024528Y-70675532D01*
X48173722Y-76590592D02*
X48092910Y-76617529D01*
X48012097Y-76698341D01*
X47958223Y-76806091D01*
X47958223Y-76913841D01*
X47985160Y-76994653D01*
X48065972Y-77129340D01*
X48146784Y-77210152D01*
X48281471Y-77290964D01*
X48362284Y-77317902D01*
X48470033Y-77317902D01*
X48577783Y-77264027D01*
X48631658Y-77210152D01*
X48685532Y-77102402D01*
X48685532Y-77048528D01*
X48496971Y-76859966D01*
X48389221Y-76967715D01*
X48981844Y-76859966D02*
X48416158Y-76294280D01*
X48631658Y-76078781D01*
X48712470Y-76051844D01*
X48766345Y-76051844D01*
X48847157Y-76078781D01*
X48927969Y-76159593D01*
X48954906Y-76240406D01*
X48954906Y-76294280D01*
X48927969Y-76375093D01*
X48712470Y-76590592D01*
X49843841Y-75997969D02*
X49520592Y-76321218D01*
X49682216Y-76159593D02*
X49116531Y-75593908D01*
X49143468Y-75728595D01*
X49143468Y-75836345D01*
X49116531Y-75917157D01*
X49951590Y-75135972D02*
X50328714Y-75513096D01*
X49601404Y-75055160D02*
X49870778Y-75593908D01*
X50220964Y-75243722D01*
X48219722Y-79130592D02*
X48138910Y-79157529D01*
X48058097Y-79238341D01*
X48004223Y-79346091D01*
X48004223Y-79453841D01*
X48031160Y-79534653D01*
X48111972Y-79669340D01*
X48192784Y-79750152D01*
X48327471Y-79830964D01*
X48408284Y-79857902D01*
X48516033Y-79857902D01*
X48623783Y-79804027D01*
X48677658Y-79750152D01*
X48731532Y-79642402D01*
X48731532Y-79588528D01*
X48542971Y-79399966D01*
X48435221Y-79507715D01*
X49027844Y-79399966D02*
X48462158Y-78834280D01*
X48677658Y-78618781D01*
X48758470Y-78591844D01*
X48812345Y-78591844D01*
X48893157Y-78618781D01*
X48973969Y-78699593D01*
X49000906Y-78780406D01*
X49000906Y-78834280D01*
X48973969Y-78915093D01*
X48758470Y-79130592D01*
X49889841Y-78537969D02*
X49566592Y-78861218D01*
X49728216Y-78699593D02*
X49162531Y-78133908D01*
X49189468Y-78268595D01*
X49189468Y-78376345D01*
X49162531Y-78457157D01*
X49835966Y-77460473D02*
X49566592Y-77729847D01*
X49809028Y-78026158D01*
X49809028Y-77972284D01*
X49835966Y-77891471D01*
X49970653Y-77756784D01*
X50051465Y-77729847D01*
X50105340Y-77729847D01*
X50186152Y-77756784D01*
X50320839Y-77891471D01*
X50347776Y-77972284D01*
X50347776Y-78026158D01*
X50320839Y-78106971D01*
X50186152Y-78241658D01*
X50105340Y-78268595D01*
X50051465Y-78268595D01*
X74327722Y-79130592D02*
X74246910Y-79157529D01*
X74166097Y-79238341D01*
X74112223Y-79346091D01*
X74112223Y-79453841D01*
X74139160Y-79534653D01*
X74219972Y-79669340D01*
X74300784Y-79750152D01*
X74435471Y-79830964D01*
X74516284Y-79857902D01*
X74624033Y-79857902D01*
X74731783Y-79804027D01*
X74785658Y-79750152D01*
X74839532Y-79642402D01*
X74839532Y-79588528D01*
X74650971Y-79399966D01*
X74543221Y-79507715D01*
X75135844Y-79399966D02*
X74570158Y-78834280D01*
X74785658Y-78618781D01*
X74866470Y-78591844D01*
X74920345Y-78591844D01*
X75001157Y-78618781D01*
X75081969Y-78699593D01*
X75108906Y-78780406D01*
X75108906Y-78834280D01*
X75081969Y-78915093D01*
X74866470Y-79130592D01*
X75997841Y-78537969D02*
X75674592Y-78861218D01*
X75836216Y-78699593D02*
X75270531Y-78133908D01*
X75297468Y-78268595D01*
X75297468Y-78376345D01*
X75270531Y-78457157D01*
X75917028Y-77487410D02*
X75809279Y-77595160D01*
X75782341Y-77675972D01*
X75782341Y-77729847D01*
X75809279Y-77864534D01*
X75890091Y-77999221D01*
X76105590Y-78214720D01*
X76186402Y-78241658D01*
X76240277Y-78241658D01*
X76321089Y-78214720D01*
X76428839Y-78106971D01*
X76455776Y-78026158D01*
X76455776Y-77972284D01*
X76428839Y-77891471D01*
X76294152Y-77756784D01*
X76213340Y-77729847D01*
X76159465Y-77729847D01*
X76078653Y-77756784D01*
X75970903Y-77864534D01*
X75943966Y-77945346D01*
X75943966Y-77999221D01*
X75970903Y-78080033D01*
X74327722Y-76590592D02*
X74246910Y-76617529D01*
X74166097Y-76698341D01*
X74112223Y-76806091D01*
X74112223Y-76913841D01*
X74139160Y-76994653D01*
X74219972Y-77129340D01*
X74300784Y-77210152D01*
X74435471Y-77290964D01*
X74516284Y-77317902D01*
X74624033Y-77317902D01*
X74731783Y-77264027D01*
X74785658Y-77210152D01*
X74839532Y-77102402D01*
X74839532Y-77048528D01*
X74650971Y-76859966D01*
X74543221Y-76967715D01*
X75135844Y-76859966D02*
X74570158Y-76294280D01*
X74785658Y-76078781D01*
X74866470Y-76051844D01*
X74920345Y-76051844D01*
X75001157Y-76078781D01*
X75081969Y-76159593D01*
X75108906Y-76240406D01*
X75108906Y-76294280D01*
X75081969Y-76375093D01*
X74866470Y-76590592D01*
X75997841Y-75997969D02*
X75674592Y-76321218D01*
X75836216Y-76159593D02*
X75270531Y-75593908D01*
X75297468Y-75728595D01*
X75297468Y-75836345D01*
X75270531Y-75917157D01*
X75620717Y-75243722D02*
X75997841Y-74866598D01*
X76321089Y-75674720D01*
X74327722Y-71510592D02*
X74246910Y-71537529D01*
X74166097Y-71618341D01*
X74112223Y-71726091D01*
X74112223Y-71833841D01*
X74139160Y-71914653D01*
X74219972Y-72049340D01*
X74300784Y-72130152D01*
X74435471Y-72210964D01*
X74516284Y-72237902D01*
X74624033Y-72237902D01*
X74731783Y-72184027D01*
X74785658Y-72130152D01*
X74839532Y-72022402D01*
X74839532Y-71968528D01*
X74650971Y-71779966D01*
X74543221Y-71887715D01*
X75135844Y-71779966D02*
X74570158Y-71214280D01*
X74785658Y-70998781D01*
X74866470Y-70971844D01*
X74920345Y-70971844D01*
X75001157Y-70998781D01*
X75081969Y-71079593D01*
X75108906Y-71160406D01*
X75108906Y-71214280D01*
X75081969Y-71295093D01*
X74866470Y-71510592D01*
X75997841Y-70917969D02*
X75674592Y-71241218D01*
X75836216Y-71079593D02*
X75270531Y-70513908D01*
X75297468Y-70648595D01*
X75297468Y-70756345D01*
X75270531Y-70837157D01*
X75997841Y-70271471D02*
X75917028Y-70298409D01*
X75863154Y-70298409D01*
X75782341Y-70271471D01*
X75755404Y-70244534D01*
X75728467Y-70163722D01*
X75728467Y-70109847D01*
X75755404Y-70029035D01*
X75863154Y-69921285D01*
X75943966Y-69894348D01*
X75997841Y-69894348D01*
X76078653Y-69921285D01*
X76105590Y-69948223D01*
X76132528Y-70029035D01*
X76132528Y-70082910D01*
X76105590Y-70163722D01*
X75997841Y-70271471D01*
X75970903Y-70352284D01*
X75970903Y-70406158D01*
X75997841Y-70486971D01*
X76105590Y-70594720D01*
X76186402Y-70621658D01*
X76240277Y-70621658D01*
X76321089Y-70594720D01*
X76428839Y-70486971D01*
X76455776Y-70406158D01*
X76455776Y-70352284D01*
X76428839Y-70271471D01*
X76321089Y-70163722D01*
X76240277Y-70136784D01*
X76186402Y-70136784D01*
X76105590Y-70163722D01*
X74327722Y-68970592D02*
X74246910Y-68997529D01*
X74166097Y-69078341D01*
X74112223Y-69186091D01*
X74112223Y-69293841D01*
X74139160Y-69374653D01*
X74219972Y-69509340D01*
X74300784Y-69590152D01*
X74435471Y-69670964D01*
X74516284Y-69697902D01*
X74624033Y-69697902D01*
X74731783Y-69644027D01*
X74785658Y-69590152D01*
X74839532Y-69482402D01*
X74839532Y-69428528D01*
X74650971Y-69239966D01*
X74543221Y-69347715D01*
X75135844Y-69239966D02*
X74570158Y-68674280D01*
X74785658Y-68458781D01*
X74866470Y-68431844D01*
X74920345Y-68431844D01*
X75001157Y-68458781D01*
X75081969Y-68539593D01*
X75108906Y-68620406D01*
X75108906Y-68674280D01*
X75081969Y-68755093D01*
X74866470Y-68970592D01*
X75997841Y-68377969D02*
X75674592Y-68701218D01*
X75836216Y-68539593D02*
X75270531Y-67973908D01*
X75297468Y-68108595D01*
X75297468Y-68216345D01*
X75270531Y-68297157D01*
X76267215Y-68108595D02*
X76374964Y-68000845D01*
X76401902Y-67920033D01*
X76401902Y-67866158D01*
X76374964Y-67731471D01*
X76294152Y-67596784D01*
X76078653Y-67381285D01*
X75997841Y-67354348D01*
X75943966Y-67354348D01*
X75863154Y-67381285D01*
X75755404Y-67489035D01*
X75728467Y-67569847D01*
X75728467Y-67623722D01*
X75755404Y-67704534D01*
X75890091Y-67839221D01*
X75970903Y-67866158D01*
X76024778Y-67866158D01*
X76105590Y-67839221D01*
X76213340Y-67731471D01*
X76240277Y-67650659D01*
X76240277Y-67596784D01*
X76213340Y-67515972D01*
X74327722Y-66430592D02*
X74246910Y-66457529D01*
X74166097Y-66538341D01*
X74112223Y-66646091D01*
X74112223Y-66753841D01*
X74139160Y-66834653D01*
X74219972Y-66969340D01*
X74300784Y-67050152D01*
X74435471Y-67130964D01*
X74516284Y-67157902D01*
X74624033Y-67157902D01*
X74731783Y-67104027D01*
X74785658Y-67050152D01*
X74839532Y-66942402D01*
X74839532Y-66888528D01*
X74650971Y-66699966D01*
X74543221Y-66807715D01*
X75135844Y-66699966D02*
X74570158Y-66134280D01*
X74785658Y-65918781D01*
X74866470Y-65891844D01*
X74920345Y-65891844D01*
X75001157Y-65918781D01*
X75081969Y-65999593D01*
X75108906Y-66080406D01*
X75108906Y-66134280D01*
X75081969Y-66215093D01*
X74866470Y-66430592D01*
X75162781Y-65649407D02*
X75162781Y-65595532D01*
X75189719Y-65514720D01*
X75324406Y-65380033D01*
X75405218Y-65353096D01*
X75459093Y-65353096D01*
X75539905Y-65380033D01*
X75593780Y-65433908D01*
X75647654Y-65541658D01*
X75647654Y-66188155D01*
X75997841Y-65837969D01*
X75782341Y-64922097D02*
X75836216Y-64868223D01*
X75917028Y-64841285D01*
X75970903Y-64841285D01*
X76051715Y-64868223D01*
X76186402Y-64949035D01*
X76321089Y-65083722D01*
X76401902Y-65218409D01*
X76428839Y-65299221D01*
X76428839Y-65353096D01*
X76401902Y-65433908D01*
X76348027Y-65487783D01*
X76267215Y-65514720D01*
X76213340Y-65514720D01*
X76132528Y-65487783D01*
X75997841Y-65406971D01*
X75863154Y-65272284D01*
X75782341Y-65137597D01*
X75755404Y-65056784D01*
X75755404Y-65002910D01*
X75782341Y-64922097D01*
X74327722Y-63900592D02*
X74246910Y-63927529D01*
X74166097Y-64008341D01*
X74112223Y-64116091D01*
X74112223Y-64223841D01*
X74139160Y-64304653D01*
X74219972Y-64439340D01*
X74300784Y-64520152D01*
X74435471Y-64600964D01*
X74516284Y-64627902D01*
X74624033Y-64627902D01*
X74731783Y-64574027D01*
X74785658Y-64520152D01*
X74839532Y-64412402D01*
X74839532Y-64358528D01*
X74650971Y-64169966D01*
X74543221Y-64277715D01*
X75135844Y-64169966D02*
X74570158Y-63604280D01*
X74785658Y-63388781D01*
X74866470Y-63361844D01*
X74920345Y-63361844D01*
X75001157Y-63388781D01*
X75081969Y-63469593D01*
X75108906Y-63550406D01*
X75108906Y-63604280D01*
X75081969Y-63685093D01*
X74866470Y-63900592D01*
X75162781Y-63119407D02*
X75162781Y-63065532D01*
X75189719Y-62984720D01*
X75324406Y-62850033D01*
X75405218Y-62823096D01*
X75459093Y-62823096D01*
X75539905Y-62850033D01*
X75593780Y-62903908D01*
X75647654Y-63011658D01*
X75647654Y-63658155D01*
X75997841Y-63307969D01*
X76536589Y-62769221D02*
X76213340Y-63092470D01*
X76374964Y-62930845D02*
X75809279Y-62365160D01*
X75836216Y-62499847D01*
X75836216Y-62607597D01*
X75809279Y-62688409D01*
X74327722Y-58810592D02*
X74246910Y-58837529D01*
X74166097Y-58918341D01*
X74112223Y-59026091D01*
X74112223Y-59133841D01*
X74139160Y-59214653D01*
X74219972Y-59349340D01*
X74300784Y-59430152D01*
X74435471Y-59510964D01*
X74516284Y-59537902D01*
X74624033Y-59537902D01*
X74731783Y-59484027D01*
X74785658Y-59430152D01*
X74839532Y-59322402D01*
X74839532Y-59268528D01*
X74650971Y-59079966D01*
X74543221Y-59187715D01*
X75135844Y-59079966D02*
X74570158Y-58514280D01*
X74785658Y-58298781D01*
X74866470Y-58271844D01*
X74920345Y-58271844D01*
X75001157Y-58298781D01*
X75081969Y-58379593D01*
X75108906Y-58460406D01*
X75108906Y-58514280D01*
X75081969Y-58595093D01*
X74866470Y-58810592D01*
X75162781Y-58029407D02*
X75162781Y-57975532D01*
X75189719Y-57894720D01*
X75324406Y-57760033D01*
X75405218Y-57733096D01*
X75459093Y-57733096D01*
X75539905Y-57760033D01*
X75593780Y-57813908D01*
X75647654Y-57921658D01*
X75647654Y-58568155D01*
X75997841Y-58217969D01*
X75701529Y-57490659D02*
X75701529Y-57436784D01*
X75728467Y-57355972D01*
X75863154Y-57221285D01*
X75943966Y-57194348D01*
X75997841Y-57194348D01*
X76078653Y-57221285D01*
X76132528Y-57275160D01*
X76186402Y-57382910D01*
X76186402Y-58029407D01*
X76536589Y-57679221D01*
X75068375Y-56553435D02*
X74610439Y-56472622D01*
X74745126Y-56876683D02*
X74179441Y-56310998D01*
X74394940Y-56095499D01*
X74475752Y-56068561D01*
X74529627Y-56068561D01*
X74610439Y-56095499D01*
X74691251Y-56176311D01*
X74718189Y-56257123D01*
X74718189Y-56310998D01*
X74691251Y-56391810D01*
X74475752Y-56607309D01*
X74745126Y-55745312D02*
X75203062Y-56203248D01*
X75283874Y-56230186D01*
X75337749Y-56230186D01*
X75418561Y-56203248D01*
X75526311Y-56095499D01*
X75553248Y-56014687D01*
X75553248Y-55960812D01*
X75526311Y-55880000D01*
X75068375Y-55422064D01*
X75903435Y-55718375D02*
X75337749Y-55152690D01*
X76226683Y-55395126D01*
X75660998Y-54829441D01*
X74327722Y-53730592D02*
X74246910Y-53757529D01*
X74166097Y-53838341D01*
X74112223Y-53946091D01*
X74112223Y-54053841D01*
X74139160Y-54134653D01*
X74219972Y-54269340D01*
X74300784Y-54350152D01*
X74435471Y-54430964D01*
X74516284Y-54457902D01*
X74624033Y-54457902D01*
X74731783Y-54404027D01*
X74785658Y-54350152D01*
X74839532Y-54242402D01*
X74839532Y-54188528D01*
X74650971Y-53999966D01*
X74543221Y-54107715D01*
X75135844Y-53999966D02*
X74570158Y-53434280D01*
X74785658Y-53218781D01*
X74866470Y-53191844D01*
X74920345Y-53191844D01*
X75001157Y-53218781D01*
X75081969Y-53299593D01*
X75108906Y-53380406D01*
X75108906Y-53434280D01*
X75081969Y-53515093D01*
X74866470Y-53730592D01*
X75162781Y-52949407D02*
X75162781Y-52895532D01*
X75189719Y-52814720D01*
X75324406Y-52680033D01*
X75405218Y-52653096D01*
X75459093Y-52653096D01*
X75539905Y-52680033D01*
X75593780Y-52733908D01*
X75647654Y-52841658D01*
X75647654Y-53488155D01*
X75997841Y-53137969D01*
X75917028Y-52087410D02*
X75809279Y-52195160D01*
X75782341Y-52275972D01*
X75782341Y-52329847D01*
X75809279Y-52464534D01*
X75890091Y-52599221D01*
X76105590Y-52814720D01*
X76186402Y-52841658D01*
X76240277Y-52841658D01*
X76321089Y-52814720D01*
X76428839Y-52706971D01*
X76455776Y-52626158D01*
X76455776Y-52572284D01*
X76428839Y-52491471D01*
X76294152Y-52356784D01*
X76213340Y-52329847D01*
X76159465Y-52329847D01*
X76078653Y-52356784D01*
X75970903Y-52464534D01*
X75943966Y-52545346D01*
X75943966Y-52599221D01*
X75970903Y-52680033D01*
X74327722Y-51200592D02*
X74246910Y-51227529D01*
X74166097Y-51308341D01*
X74112223Y-51416091D01*
X74112223Y-51523841D01*
X74139160Y-51604653D01*
X74219972Y-51739340D01*
X74300784Y-51820152D01*
X74435471Y-51900964D01*
X74516284Y-51927902D01*
X74624033Y-51927902D01*
X74731783Y-51874027D01*
X74785658Y-51820152D01*
X74839532Y-51712402D01*
X74839532Y-51658528D01*
X74650971Y-51469966D01*
X74543221Y-51577715D01*
X75135844Y-51469966D02*
X74570158Y-50904280D01*
X74785658Y-50688781D01*
X74866470Y-50661844D01*
X74920345Y-50661844D01*
X75001157Y-50688781D01*
X75081969Y-50769593D01*
X75108906Y-50850406D01*
X75108906Y-50904280D01*
X75081969Y-50985093D01*
X74866470Y-51200592D01*
X75162781Y-50419407D02*
X75162781Y-50365532D01*
X75189719Y-50284720D01*
X75324406Y-50150033D01*
X75405218Y-50123096D01*
X75459093Y-50123096D01*
X75539905Y-50150033D01*
X75593780Y-50203908D01*
X75647654Y-50311658D01*
X75647654Y-50958155D01*
X75997841Y-50607969D01*
X75620717Y-49853722D02*
X75997841Y-49476598D01*
X76321089Y-50284720D01*
X74327722Y-45856592D02*
X74246910Y-45883529D01*
X74166097Y-45964341D01*
X74112223Y-46072091D01*
X74112223Y-46179841D01*
X74139160Y-46260653D01*
X74219972Y-46395340D01*
X74300784Y-46476152D01*
X74435471Y-46556964D01*
X74516284Y-46583902D01*
X74624033Y-46583902D01*
X74731783Y-46530027D01*
X74785658Y-46476152D01*
X74839532Y-46368402D01*
X74839532Y-46314528D01*
X74650971Y-46125966D01*
X74543221Y-46233715D01*
X75135844Y-46125966D02*
X74570158Y-45560280D01*
X74785658Y-45344781D01*
X74866470Y-45317844D01*
X74920345Y-45317844D01*
X75001157Y-45344781D01*
X75081969Y-45425593D01*
X75108906Y-45506406D01*
X75108906Y-45560280D01*
X75081969Y-45641093D01*
X74866470Y-45856592D01*
X75162781Y-45075407D02*
X75162781Y-45021532D01*
X75189719Y-44940720D01*
X75324406Y-44806033D01*
X75405218Y-44779096D01*
X75459093Y-44779096D01*
X75539905Y-44806033D01*
X75593780Y-44859908D01*
X75647654Y-44967658D01*
X75647654Y-45614155D01*
X75997841Y-45263969D01*
X75997841Y-44617471D02*
X75917028Y-44644409D01*
X75863154Y-44644409D01*
X75782341Y-44617471D01*
X75755404Y-44590534D01*
X75728467Y-44509722D01*
X75728467Y-44455847D01*
X75755404Y-44375035D01*
X75863154Y-44267285D01*
X75943966Y-44240348D01*
X75997841Y-44240348D01*
X76078653Y-44267285D01*
X76105590Y-44294223D01*
X76132528Y-44375035D01*
X76132528Y-44428910D01*
X76105590Y-44509722D01*
X75997841Y-44617471D01*
X75970903Y-44698284D01*
X75970903Y-44752158D01*
X75997841Y-44832971D01*
X76105590Y-44940720D01*
X76186402Y-44967658D01*
X76240277Y-44967658D01*
X76321089Y-44940720D01*
X76428839Y-44832971D01*
X76455776Y-44752158D01*
X76455776Y-44698284D01*
X76428839Y-44617471D01*
X76321089Y-44509722D01*
X76240277Y-44482784D01*
X76186402Y-44482784D01*
X76105590Y-44509722D01*
X74384788Y-44143773D02*
X74654162Y-43874399D01*
X74492537Y-44359272D02*
X74115414Y-43605025D01*
X74869661Y-43982149D01*
X75058223Y-43793587D02*
X74492537Y-43227902D01*
X74627224Y-43093215D01*
X74734974Y-43039340D01*
X74842723Y-43039340D01*
X74923536Y-43066277D01*
X75058223Y-43147089D01*
X75139035Y-43227902D01*
X75219847Y-43362589D01*
X75246784Y-43443401D01*
X75246784Y-43551150D01*
X75192910Y-43658900D01*
X75058223Y-43793587D01*
X75893282Y-42850778D02*
X75893282Y-42904653D01*
X75839407Y-43012402D01*
X75785532Y-43066277D01*
X75677783Y-43120152D01*
X75570033Y-43120152D01*
X75489221Y-43093215D01*
X75354534Y-43012402D01*
X75273722Y-42931590D01*
X75192910Y-42796903D01*
X75165972Y-42716091D01*
X75165972Y-42608341D01*
X75219847Y-42500592D01*
X75273722Y-42446717D01*
X75381471Y-42392842D01*
X75435346Y-42392842D01*
X76108781Y-42850778D02*
X76539780Y-42419780D01*
X75974094Y-41746345D02*
X76728341Y-42123468D01*
X76351218Y-41369221D01*
X77428714Y-41423096D02*
X76970778Y-41342284D01*
X77105465Y-41746345D02*
X76539780Y-41180659D01*
X76755279Y-40965160D01*
X76836091Y-40938223D01*
X76889966Y-40938223D01*
X76970778Y-40965160D01*
X77051590Y-41045972D01*
X77078528Y-41126784D01*
X77078528Y-41180659D01*
X77051590Y-41261471D01*
X76836091Y-41476971D01*
X77374839Y-40884348D02*
X77563401Y-40695786D01*
X77940524Y-40911285D02*
X77671150Y-41180659D01*
X77105465Y-40614974D01*
X77374839Y-40345600D01*
X78075211Y-40183975D02*
X77886650Y-40372537D01*
X78182961Y-40668849D02*
X77617276Y-40103163D01*
X77886650Y-39833789D01*
X74119847Y-41100592D02*
X74470033Y-40750406D01*
X74496971Y-41154467D01*
X74577783Y-41073654D01*
X74658595Y-41046717D01*
X74712470Y-41046717D01*
X74793282Y-41073654D01*
X74927969Y-41208341D01*
X74954906Y-41289154D01*
X74954906Y-41343028D01*
X74927969Y-41423841D01*
X74766345Y-41585465D01*
X74685532Y-41612402D01*
X74631658Y-41612402D01*
X74631658Y-40588781D02*
X75385905Y-40965905D01*
X75008781Y-40211658D01*
X75143468Y-40076971D02*
X75493654Y-39726784D01*
X75520592Y-40130845D01*
X75601404Y-40050033D01*
X75682216Y-40023096D01*
X75736091Y-40023096D01*
X75816903Y-40050033D01*
X75951590Y-40184720D01*
X75978528Y-40265532D01*
X75978528Y-40319407D01*
X75951590Y-40400219D01*
X75789966Y-40561844D01*
X75709154Y-40588781D01*
X75655279Y-40588781D01*
X74152131Y-38568308D02*
X74502317Y-38218122D01*
X74529255Y-38622183D01*
X74610067Y-38541370D01*
X74690879Y-38514433D01*
X74744754Y-38514433D01*
X74825566Y-38541370D01*
X74960253Y-38676057D01*
X74987190Y-38756870D01*
X74987190Y-38810744D01*
X74960253Y-38891557D01*
X74798629Y-39053181D01*
X74717816Y-39080118D01*
X74663942Y-39080118D01*
X74663942Y-38056497D02*
X75418189Y-38433621D01*
X75041065Y-37679374D01*
X75175752Y-37544687D02*
X75525938Y-37194500D01*
X75552876Y-37598561D01*
X75633688Y-37517749D01*
X75714500Y-37490812D01*
X75768375Y-37490812D01*
X75849187Y-37517749D01*
X75983874Y-37652436D01*
X76010812Y-37733248D01*
X76010812Y-37787123D01*
X75983874Y-37867935D01*
X75822250Y-38029560D01*
X75741438Y-38056497D01*
X75687563Y-38056497D01*
X76253248Y-37706311D02*
X76684247Y-37275312D01*
X76468748Y-36790439D02*
X76657309Y-36601877D01*
X77034433Y-36817377D02*
X76765059Y-37086751D01*
X76199374Y-36521065D01*
X76468748Y-36251691D01*
X77276870Y-36574940D02*
X76711184Y-36009255D01*
X77600118Y-36251691D01*
X77034433Y-35686006D01*
X74150473Y-33679966D02*
X74904720Y-34057089D01*
X74527597Y-33302842D01*
X75227969Y-33679966D02*
X75335719Y-33626091D01*
X75470406Y-33491404D01*
X75497343Y-33410592D01*
X75497343Y-33356717D01*
X75470406Y-33275905D01*
X75416531Y-33222030D01*
X75335719Y-33195093D01*
X75281844Y-33195093D01*
X75201032Y-33222030D01*
X75066345Y-33302842D01*
X74985532Y-33329780D01*
X74931658Y-33329780D01*
X74850845Y-33302842D01*
X74796971Y-33248967D01*
X74770033Y-33168155D01*
X74770033Y-33114280D01*
X74796971Y-33033468D01*
X74931658Y-32898781D01*
X75039407Y-32844906D01*
X75658967Y-32764094D02*
X75928341Y-33033468D01*
X75174094Y-32656345D02*
X75658967Y-32764094D01*
X75551218Y-32279221D01*
X76251590Y-32656345D02*
X76359340Y-32602470D01*
X76494027Y-32467783D01*
X76520964Y-32386971D01*
X76520964Y-32333096D01*
X76494027Y-32252284D01*
X76440152Y-32198409D01*
X76359340Y-32171471D01*
X76305465Y-32171471D01*
X76224653Y-32198409D01*
X76089966Y-32279221D01*
X76009154Y-32306158D01*
X75955279Y-32306158D01*
X75874467Y-32279221D01*
X75820592Y-32225346D01*
X75793654Y-32144534D01*
X75793654Y-32090659D01*
X75820592Y-32009847D01*
X75955279Y-31875160D01*
X76063028Y-31821285D01*
X74183129Y-31137309D02*
X74937377Y-31514433D01*
X74560253Y-30760186D01*
X75206751Y-30652436D02*
X75314500Y-30598561D01*
X75368375Y-30598561D01*
X75449187Y-30625499D01*
X75529999Y-30706311D01*
X75556937Y-30787123D01*
X75556937Y-30840998D01*
X75530000Y-30921810D01*
X75314500Y-31137309D01*
X74748815Y-30571624D01*
X74937377Y-30383062D01*
X75018189Y-30356125D01*
X75072064Y-30356125D01*
X75152876Y-30383062D01*
X75206751Y-30436937D01*
X75233688Y-30517749D01*
X75233688Y-30571624D01*
X75206751Y-30652436D01*
X75018189Y-30840998D01*
X75314500Y-30005938D02*
X75772436Y-30463874D01*
X75853248Y-30490812D01*
X75907123Y-30490812D01*
X75987935Y-30463874D01*
X76095685Y-30356125D01*
X76122622Y-30275312D01*
X76122622Y-30221438D01*
X76095685Y-30140625D01*
X75637749Y-29682690D01*
X76418934Y-29979001D02*
X76526683Y-29925126D01*
X76661370Y-29790439D01*
X76688308Y-29709627D01*
X76688308Y-29655752D01*
X76661370Y-29574940D01*
X76607496Y-29521065D01*
X76526683Y-29494128D01*
X76472809Y-29494128D01*
X76391996Y-29521065D01*
X76257309Y-29601877D01*
X76176497Y-29628815D01*
X76122622Y-29628815D01*
X76041810Y-29601877D01*
X75987935Y-29548003D01*
X75960998Y-29467190D01*
X75960998Y-29413316D01*
X75987935Y-29332503D01*
X76122622Y-29197816D01*
X76230372Y-29143942D01*
X48716158Y-35708155D02*
X48635346Y-35735093D01*
X48554534Y-35815905D01*
X48500659Y-35923654D01*
X48500659Y-36031404D01*
X48527597Y-36112216D01*
X48608409Y-36246903D01*
X48689221Y-36327715D01*
X48823908Y-36408528D01*
X48904720Y-36435465D01*
X49012470Y-36435465D01*
X49120219Y-36381590D01*
X49174094Y-36327715D01*
X49227969Y-36219966D01*
X49227969Y-36166091D01*
X49039407Y-35977529D01*
X48931658Y-36085279D01*
X49524280Y-35977529D02*
X48958595Y-35411844D01*
X49847529Y-35654280D01*
X49281844Y-35088595D01*
X50116903Y-35384906D02*
X49551218Y-34819221D01*
X49685905Y-34684534D01*
X49793654Y-34630659D01*
X49901404Y-34630659D01*
X49982216Y-34657597D01*
X50116903Y-34738409D01*
X50197715Y-34819221D01*
X50278528Y-34953908D01*
X50305465Y-35034720D01*
X50305465Y-35142470D01*
X50251590Y-35250219D01*
X50116903Y-35384906D01*
X48716158Y-48408155D02*
X48635346Y-48435093D01*
X48554534Y-48515905D01*
X48500659Y-48623654D01*
X48500659Y-48731404D01*
X48527597Y-48812216D01*
X48608409Y-48946903D01*
X48689221Y-49027715D01*
X48823908Y-49108528D01*
X48904720Y-49135465D01*
X49012470Y-49135465D01*
X49120219Y-49081590D01*
X49174094Y-49027715D01*
X49227969Y-48919966D01*
X49227969Y-48866091D01*
X49039407Y-48677529D01*
X48931658Y-48785279D01*
X49524280Y-48677529D02*
X48958595Y-48111844D01*
X49847529Y-48354280D01*
X49281844Y-47788595D01*
X50116903Y-48084906D02*
X49551218Y-47519221D01*
X49685905Y-47384534D01*
X49793654Y-47330659D01*
X49901404Y-47330659D01*
X49982216Y-47357597D01*
X50116903Y-47438409D01*
X50197715Y-47519221D01*
X50278528Y-47653908D01*
X50305465Y-47734720D01*
X50305465Y-47842470D01*
X50251590Y-47950219D01*
X50116903Y-48084906D01*
X48716158Y-61108155D02*
X48635346Y-61135093D01*
X48554534Y-61215905D01*
X48500659Y-61323654D01*
X48500659Y-61431404D01*
X48527597Y-61512216D01*
X48608409Y-61646903D01*
X48689221Y-61727715D01*
X48823908Y-61808528D01*
X48904720Y-61835465D01*
X49012470Y-61835465D01*
X49120219Y-61781590D01*
X49174094Y-61727715D01*
X49227969Y-61619966D01*
X49227969Y-61566091D01*
X49039407Y-61377529D01*
X48931658Y-61485279D01*
X49524280Y-61377529D02*
X48958595Y-60811844D01*
X49847529Y-61054280D01*
X49281844Y-60488595D01*
X50116903Y-60784906D02*
X49551218Y-60219221D01*
X49685905Y-60084534D01*
X49793654Y-60030659D01*
X49901404Y-60030659D01*
X49982216Y-60057597D01*
X50116903Y-60138409D01*
X50197715Y-60219221D01*
X50278528Y-60353908D01*
X50305465Y-60434720D01*
X50305465Y-60542470D01*
X50251590Y-60650219D01*
X50116903Y-60784906D01*
X48716158Y-73808155D02*
X48635346Y-73835093D01*
X48554534Y-73915905D01*
X48500659Y-74023654D01*
X48500659Y-74131404D01*
X48527597Y-74212216D01*
X48608409Y-74346903D01*
X48689221Y-74427715D01*
X48823908Y-74508528D01*
X48904720Y-74535465D01*
X49012470Y-74535465D01*
X49120219Y-74481590D01*
X49174094Y-74427715D01*
X49227969Y-74319966D01*
X49227969Y-74266091D01*
X49039407Y-74077529D01*
X48931658Y-74185279D01*
X49524280Y-74077529D02*
X48958595Y-73511844D01*
X49847529Y-73754280D01*
X49281844Y-73188595D01*
X50116903Y-73484906D02*
X49551218Y-72919221D01*
X49685905Y-72784534D01*
X49793654Y-72730659D01*
X49901404Y-72730659D01*
X49982216Y-72757597D01*
X50116903Y-72838409D01*
X50197715Y-72919221D01*
X50278528Y-73053908D01*
X50305465Y-73134720D01*
X50305465Y-73242470D01*
X50251590Y-73350219D01*
X50116903Y-73484906D01*
X74316158Y-73808155D02*
X74235346Y-73835093D01*
X74154534Y-73915905D01*
X74100659Y-74023654D01*
X74100659Y-74131404D01*
X74127597Y-74212216D01*
X74208409Y-74346903D01*
X74289221Y-74427715D01*
X74423908Y-74508528D01*
X74504720Y-74535465D01*
X74612470Y-74535465D01*
X74720219Y-74481590D01*
X74774094Y-74427715D01*
X74827969Y-74319966D01*
X74827969Y-74266091D01*
X74639407Y-74077529D01*
X74531658Y-74185279D01*
X75124280Y-74077529D02*
X74558595Y-73511844D01*
X75447529Y-73754280D01*
X74881844Y-73188595D01*
X75716903Y-73484906D02*
X75151218Y-72919221D01*
X75285905Y-72784534D01*
X75393654Y-72730659D01*
X75501404Y-72730659D01*
X75582216Y-72757597D01*
X75716903Y-72838409D01*
X75797715Y-72919221D01*
X75878528Y-73053908D01*
X75905465Y-73134720D01*
X75905465Y-73242470D01*
X75851590Y-73350219D01*
X75716903Y-73484906D01*
X74316158Y-61108155D02*
X74235346Y-61135093D01*
X74154534Y-61215905D01*
X74100659Y-61323654D01*
X74100659Y-61431404D01*
X74127597Y-61512216D01*
X74208409Y-61646903D01*
X74289221Y-61727715D01*
X74423908Y-61808528D01*
X74504720Y-61835465D01*
X74612470Y-61835465D01*
X74720219Y-61781590D01*
X74774094Y-61727715D01*
X74827969Y-61619966D01*
X74827969Y-61566091D01*
X74639407Y-61377529D01*
X74531658Y-61485279D01*
X75124280Y-61377529D02*
X74558595Y-60811844D01*
X75447529Y-61054280D01*
X74881844Y-60488595D01*
X75716903Y-60784906D02*
X75151218Y-60219221D01*
X75285905Y-60084534D01*
X75393654Y-60030659D01*
X75501404Y-60030659D01*
X75582216Y-60057597D01*
X75716903Y-60138409D01*
X75797715Y-60219221D01*
X75878528Y-60353908D01*
X75905465Y-60434720D01*
X75905465Y-60542470D01*
X75851590Y-60650219D01*
X75716903Y-60784906D01*
X74316158Y-35708155D02*
X74235346Y-35735093D01*
X74154534Y-35815905D01*
X74100659Y-35923654D01*
X74100659Y-36031404D01*
X74127597Y-36112216D01*
X74208409Y-36246903D01*
X74289221Y-36327715D01*
X74423908Y-36408528D01*
X74504720Y-36435465D01*
X74612470Y-36435465D01*
X74720219Y-36381590D01*
X74774094Y-36327715D01*
X74827969Y-36219966D01*
X74827969Y-36166091D01*
X74639407Y-35977529D01*
X74531658Y-36085279D01*
X75124280Y-35977529D02*
X74558595Y-35411844D01*
X75447529Y-35654280D01*
X74881844Y-35088595D01*
X75716903Y-35384906D02*
X75151218Y-34819221D01*
X75285905Y-34684534D01*
X75393654Y-34630659D01*
X75501404Y-34630659D01*
X75582216Y-34657597D01*
X75716903Y-34738409D01*
X75797715Y-34819221D01*
X75878528Y-34953908D01*
X75905465Y-35034720D01*
X75905465Y-35142470D01*
X75851590Y-35250219D01*
X75716903Y-35384906D01*
X74381597Y-49350964D02*
X74650971Y-49081590D01*
X74489346Y-49566463D02*
X74112223Y-48812216D01*
X74866470Y-49189340D01*
X74812595Y-48165719D02*
X74731783Y-48192656D01*
X74650971Y-48273468D01*
X74597096Y-48381218D01*
X74597096Y-48488967D01*
X74624033Y-48569780D01*
X74704845Y-48704467D01*
X74785658Y-48785279D01*
X74920345Y-48866091D01*
X75001157Y-48893028D01*
X75108906Y-48893028D01*
X75216656Y-48839154D01*
X75270531Y-48785279D01*
X75324406Y-48677529D01*
X75324406Y-48623654D01*
X75135844Y-48435093D01*
X75028094Y-48542842D01*
X75620717Y-48435093D02*
X75055032Y-47869407D01*
X75943966Y-48111844D01*
X75378280Y-47546158D01*
X76213340Y-47842470D02*
X75647654Y-47276784D01*
X75782341Y-47142097D01*
X75890091Y-47088223D01*
X75997841Y-47088223D01*
X76078653Y-47115160D01*
X76213340Y-47195972D01*
X76294152Y-47276784D01*
X76374964Y-47411471D01*
X76401902Y-47492284D01*
X76401902Y-47600033D01*
X76348027Y-47707783D01*
X76213340Y-47842470D01*
X54720476Y-81133809D02*
X54834761Y-81171904D01*
X55025238Y-81171904D01*
X55101428Y-81133809D01*
X55139523Y-81095714D01*
X55177619Y-81019523D01*
X55177619Y-80943333D01*
X55139523Y-80867142D01*
X55101428Y-80829047D01*
X55025238Y-80790952D01*
X54872857Y-80752857D01*
X54796666Y-80714761D01*
X54758571Y-80676666D01*
X54720476Y-80600476D01*
X54720476Y-80524285D01*
X54758571Y-80448095D01*
X54796666Y-80410000D01*
X54872857Y-80371904D01*
X55063333Y-80371904D01*
X55177619Y-80410000D01*
X55444285Y-80371904D02*
X55634761Y-81171904D01*
X55787142Y-80600476D01*
X55939523Y-81171904D01*
X56130000Y-80371904D01*
X56891904Y-81095714D02*
X56853809Y-81133809D01*
X56739523Y-81171904D01*
X56663333Y-81171904D01*
X56549047Y-81133809D01*
X56472857Y-81057619D01*
X56434761Y-80981428D01*
X56396666Y-80829047D01*
X56396666Y-80714761D01*
X56434761Y-80562380D01*
X56472857Y-80486190D01*
X56549047Y-80410000D01*
X56663333Y-80371904D01*
X56739523Y-80371904D01*
X56853809Y-80410000D01*
X56891904Y-80448095D01*
X57615714Y-81171904D02*
X57234761Y-81171904D01*
X57234761Y-80371904D01*
X57882380Y-81171904D02*
X57882380Y-80371904D01*
X58339523Y-81171904D02*
X57996666Y-80714761D01*
X58339523Y-80371904D02*
X57882380Y-80829047D01*
X66134761Y-81133809D02*
X66249047Y-81171904D01*
X66439523Y-81171904D01*
X66515714Y-81133809D01*
X66553809Y-81095714D01*
X66591904Y-81019523D01*
X66591904Y-80943333D01*
X66553809Y-80867142D01*
X66515714Y-80829047D01*
X66439523Y-80790952D01*
X66287142Y-80752857D01*
X66210952Y-80714761D01*
X66172857Y-80676666D01*
X66134761Y-80600476D01*
X66134761Y-80524285D01*
X66172857Y-80448095D01*
X66210952Y-80410000D01*
X66287142Y-80371904D01*
X66477619Y-80371904D01*
X66591904Y-80410000D01*
X66858571Y-80371904D02*
X67049047Y-81171904D01*
X67201428Y-80600476D01*
X67353809Y-81171904D01*
X67544285Y-80371904D01*
X67849047Y-81171904D02*
X67849047Y-80371904D01*
X68039523Y-80371904D01*
X68153809Y-80410000D01*
X68230000Y-80486190D01*
X68268095Y-80562380D01*
X68306190Y-80714761D01*
X68306190Y-80829047D01*
X68268095Y-80981428D01*
X68230000Y-81057619D01*
X68153809Y-81133809D01*
X68039523Y-81171904D01*
X67849047Y-81171904D01*
X68649047Y-81171904D02*
X68649047Y-80371904D01*
X69182380Y-80371904D02*
X69334761Y-80371904D01*
X69410952Y-80410000D01*
X69487142Y-80486190D01*
X69525238Y-80638571D01*
X69525238Y-80905238D01*
X69487142Y-81057619D01*
X69410952Y-81133809D01*
X69334761Y-81171904D01*
X69182380Y-81171904D01*
X69106190Y-81133809D01*
X69030000Y-81057619D01*
X68991904Y-80905238D01*
X68991904Y-80638571D01*
X69030000Y-80486190D01*
X69106190Y-80410000D01*
X69182380Y-80371904D01*
G04 #@! TO.C,J5*
X61896666Y-81102380D02*
X61896666Y-81816666D01*
X61849047Y-81959523D01*
X61753809Y-82054761D01*
X61610952Y-82102380D01*
X61515714Y-82102380D01*
X62849047Y-81102380D02*
X62372857Y-81102380D01*
X62325238Y-81578571D01*
X62372857Y-81530952D01*
X62468095Y-81483333D01*
X62706190Y-81483333D01*
X62801428Y-81530952D01*
X62849047Y-81578571D01*
X62896666Y-81673809D01*
X62896666Y-81911904D01*
X62849047Y-82007142D01*
X62801428Y-82054761D01*
X62706190Y-82102380D01*
X62468095Y-82102380D01*
X62372857Y-82054761D01*
X62325238Y-82007142D01*
G04 #@! TO.C,D1*
X66571904Y-21407380D02*
X66571904Y-20407380D01*
X66810000Y-20407380D01*
X66952857Y-20455000D01*
X67048095Y-20550238D01*
X67095714Y-20645476D01*
X67143333Y-20835952D01*
X67143333Y-20978809D01*
X67095714Y-21169285D01*
X67048095Y-21264523D01*
X66952857Y-21359761D01*
X66810000Y-21407380D01*
X66571904Y-21407380D01*
X68095714Y-21407380D02*
X67524285Y-21407380D01*
X67810000Y-21407380D02*
X67810000Y-20407380D01*
X67714761Y-20550238D01*
X67619523Y-20645476D01*
X67524285Y-20693095D01*
G04 #@! TO.C,D2*
X56411904Y-21407380D02*
X56411904Y-20407380D01*
X56650000Y-20407380D01*
X56792857Y-20455000D01*
X56888095Y-20550238D01*
X56935714Y-20645476D01*
X56983333Y-20835952D01*
X56983333Y-20978809D01*
X56935714Y-21169285D01*
X56888095Y-21264523D01*
X56792857Y-21359761D01*
X56650000Y-21407380D01*
X56411904Y-21407380D01*
X57364285Y-20502619D02*
X57411904Y-20455000D01*
X57507142Y-20407380D01*
X57745238Y-20407380D01*
X57840476Y-20455000D01*
X57888095Y-20502619D01*
X57935714Y-20597857D01*
X57935714Y-20693095D01*
X57888095Y-20835952D01*
X57316666Y-21407380D01*
X57935714Y-21407380D01*
G04 #@! TO.C,J1*
X16597380Y-35973333D02*
X17311666Y-35973333D01*
X17454523Y-36020952D01*
X17549761Y-36116190D01*
X17597380Y-36259047D01*
X17597380Y-36354285D01*
X17597380Y-34973333D02*
X17597380Y-35544761D01*
X17597380Y-35259047D02*
X16597380Y-35259047D01*
X16740238Y-35354285D01*
X16835476Y-35449523D01*
X16883095Y-35544761D01*
G04 #@! TO.C,J2*
X16597380Y-52403333D02*
X17311666Y-52403333D01*
X17454523Y-52450952D01*
X17549761Y-52546190D01*
X17597380Y-52689047D01*
X17597380Y-52784285D01*
X16692619Y-51974761D02*
X16645000Y-51927142D01*
X16597380Y-51831904D01*
X16597380Y-51593809D01*
X16645000Y-51498571D01*
X16692619Y-51450952D01*
X16787857Y-51403333D01*
X16883095Y-51403333D01*
X17025952Y-51450952D01*
X17597380Y-52022380D01*
X17597380Y-51403333D01*
G04 #@! TO.C,J3*
X16597380Y-68913333D02*
X17311666Y-68913333D01*
X17454523Y-68960952D01*
X17549761Y-69056190D01*
X17597380Y-69199047D01*
X17597380Y-69294285D01*
X16597380Y-68532380D02*
X16597380Y-67913333D01*
X16978333Y-68246666D01*
X16978333Y-68103809D01*
X17025952Y-68008571D01*
X17073571Y-67960952D01*
X17168809Y-67913333D01*
X17406904Y-67913333D01*
X17502142Y-67960952D01*
X17549761Y-68008571D01*
X17597380Y-68103809D01*
X17597380Y-68389523D01*
X17549761Y-68484761D01*
X17502142Y-68532380D01*
G04 #@! TO.C,J4*
X16597380Y-84153333D02*
X17311666Y-84153333D01*
X17454523Y-84200952D01*
X17549761Y-84296190D01*
X17597380Y-84439047D01*
X17597380Y-84534285D01*
X16930714Y-83248571D02*
X17597380Y-83248571D01*
X16549761Y-83486666D02*
X17264047Y-83724761D01*
X17264047Y-83105714D01*
G04 #@! TO.C,J6*
X111847380Y-23193333D02*
X112561666Y-23193333D01*
X112704523Y-23240952D01*
X112799761Y-23336190D01*
X112847380Y-23479047D01*
X112847380Y-23574285D01*
X111847380Y-22288571D02*
X111847380Y-22479047D01*
X111895000Y-22574285D01*
X111942619Y-22621904D01*
X112085476Y-22717142D01*
X112275952Y-22764761D01*
X112656904Y-22764761D01*
X112752142Y-22717142D01*
X112799761Y-22669523D01*
X112847380Y-22574285D01*
X112847380Y-22383809D01*
X112799761Y-22288571D01*
X112752142Y-22240952D01*
X112656904Y-22193333D01*
X112418809Y-22193333D01*
X112323571Y-22240952D01*
X112275952Y-22288571D01*
X112228333Y-22383809D01*
X112228333Y-22574285D01*
X112275952Y-22669523D01*
X112323571Y-22717142D01*
X112418809Y-22764761D01*
G04 #@! TO.C,J7*
X111847380Y-30813333D02*
X112561666Y-30813333D01*
X112704523Y-30860952D01*
X112799761Y-30956190D01*
X112847380Y-31099047D01*
X112847380Y-31194285D01*
X111847380Y-30432380D02*
X111847380Y-29765714D01*
X112847380Y-30194285D01*
G04 #@! TO.C,J8*
X111847380Y-38433333D02*
X112561666Y-38433333D01*
X112704523Y-38480952D01*
X112799761Y-38576190D01*
X112847380Y-38719047D01*
X112847380Y-38814285D01*
X112275952Y-37814285D02*
X112228333Y-37909523D01*
X112180714Y-37957142D01*
X112085476Y-38004761D01*
X112037857Y-38004761D01*
X111942619Y-37957142D01*
X111895000Y-37909523D01*
X111847380Y-37814285D01*
X111847380Y-37623809D01*
X111895000Y-37528571D01*
X111942619Y-37480952D01*
X112037857Y-37433333D01*
X112085476Y-37433333D01*
X112180714Y-37480952D01*
X112228333Y-37528571D01*
X112275952Y-37623809D01*
X112275952Y-37814285D01*
X112323571Y-37909523D01*
X112371190Y-37957142D01*
X112466428Y-38004761D01*
X112656904Y-38004761D01*
X112752142Y-37957142D01*
X112799761Y-37909523D01*
X112847380Y-37814285D01*
X112847380Y-37623809D01*
X112799761Y-37528571D01*
X112752142Y-37480952D01*
X112656904Y-37433333D01*
X112466428Y-37433333D01*
X112371190Y-37480952D01*
X112323571Y-37528571D01*
X112275952Y-37623809D01*
G04 #@! TO.C,J9*
X111847380Y-46053333D02*
X112561666Y-46053333D01*
X112704523Y-46100952D01*
X112799761Y-46196190D01*
X112847380Y-46339047D01*
X112847380Y-46434285D01*
X112847380Y-45529523D02*
X112847380Y-45339047D01*
X112799761Y-45243809D01*
X112752142Y-45196190D01*
X112609285Y-45100952D01*
X112418809Y-45053333D01*
X112037857Y-45053333D01*
X111942619Y-45100952D01*
X111895000Y-45148571D01*
X111847380Y-45243809D01*
X111847380Y-45434285D01*
X111895000Y-45529523D01*
X111942619Y-45577142D01*
X112037857Y-45624761D01*
X112275952Y-45624761D01*
X112371190Y-45577142D01*
X112418809Y-45529523D01*
X112466428Y-45434285D01*
X112466428Y-45243809D01*
X112418809Y-45148571D01*
X112371190Y-45100952D01*
X112275952Y-45053333D01*
G04 #@! TO.C,J10*
X111847380Y-64309523D02*
X112561666Y-64309523D01*
X112704523Y-64357142D01*
X112799761Y-64452380D01*
X112847380Y-64595238D01*
X112847380Y-64690476D01*
X112847380Y-63309523D02*
X112847380Y-63880952D01*
X112847380Y-63595238D02*
X111847380Y-63595238D01*
X111990238Y-63690476D01*
X112085476Y-63785714D01*
X112133095Y-63880952D01*
X111847380Y-62690476D02*
X111847380Y-62595238D01*
X111895000Y-62500000D01*
X111942619Y-62452380D01*
X112037857Y-62404761D01*
X112228333Y-62357142D01*
X112466428Y-62357142D01*
X112656904Y-62404761D01*
X112752142Y-62452380D01*
X112799761Y-62500000D01*
X112847380Y-62595238D01*
X112847380Y-62690476D01*
X112799761Y-62785714D01*
X112752142Y-62833333D01*
X112656904Y-62880952D01*
X112466428Y-62928571D01*
X112228333Y-62928571D01*
X112037857Y-62880952D01*
X111942619Y-62833333D01*
X111895000Y-62785714D01*
X111847380Y-62690476D01*
G04 #@! TO.C,J11*
X111847380Y-71929523D02*
X112561666Y-71929523D01*
X112704523Y-71977142D01*
X112799761Y-72072380D01*
X112847380Y-72215238D01*
X112847380Y-72310476D01*
X112847380Y-70929523D02*
X112847380Y-71500952D01*
X112847380Y-71215238D02*
X111847380Y-71215238D01*
X111990238Y-71310476D01*
X112085476Y-71405714D01*
X112133095Y-71500952D01*
X112847380Y-69977142D02*
X112847380Y-70548571D01*
X112847380Y-70262857D02*
X111847380Y-70262857D01*
X111990238Y-70358095D01*
X112085476Y-70453333D01*
X112133095Y-70548571D01*
G04 #@! TO.C,J12*
X111847380Y-79549523D02*
X112561666Y-79549523D01*
X112704523Y-79597142D01*
X112799761Y-79692380D01*
X112847380Y-79835238D01*
X112847380Y-79930476D01*
X112847380Y-78549523D02*
X112847380Y-79120952D01*
X112847380Y-78835238D02*
X111847380Y-78835238D01*
X111990238Y-78930476D01*
X112085476Y-79025714D01*
X112133095Y-79120952D01*
X111942619Y-78168571D02*
X111895000Y-78120952D01*
X111847380Y-78025714D01*
X111847380Y-77787619D01*
X111895000Y-77692380D01*
X111942619Y-77644761D01*
X112037857Y-77597142D01*
X112133095Y-77597142D01*
X112275952Y-77644761D01*
X112847380Y-78216190D01*
X112847380Y-77597142D01*
G04 #@! TO.C,J13*
X111847380Y-87169523D02*
X112561666Y-87169523D01*
X112704523Y-87217142D01*
X112799761Y-87312380D01*
X112847380Y-87455238D01*
X112847380Y-87550476D01*
X112847380Y-86169523D02*
X112847380Y-86740952D01*
X112847380Y-86455238D02*
X111847380Y-86455238D01*
X111990238Y-86550476D01*
X112085476Y-86645714D01*
X112133095Y-86740952D01*
X111847380Y-85836190D02*
X111847380Y-85217142D01*
X112228333Y-85550476D01*
X112228333Y-85407619D01*
X112275952Y-85312380D01*
X112323571Y-85264761D01*
X112418809Y-85217142D01*
X112656904Y-85217142D01*
X112752142Y-85264761D01*
X112799761Y-85312380D01*
X112847380Y-85407619D01*
X112847380Y-85693333D01*
X112799761Y-85788571D01*
X112752142Y-85836190D01*
G04 #@! TO.C,R1*
X43013333Y-34277380D02*
X42680000Y-33801190D01*
X42441904Y-34277380D02*
X42441904Y-33277380D01*
X42822857Y-33277380D01*
X42918095Y-33325000D01*
X42965714Y-33372619D01*
X43013333Y-33467857D01*
X43013333Y-33610714D01*
X42965714Y-33705952D01*
X42918095Y-33753571D01*
X42822857Y-33801190D01*
X42441904Y-33801190D01*
X43965714Y-34277380D02*
X43394285Y-34277380D01*
X43680000Y-34277380D02*
X43680000Y-33277380D01*
X43584761Y-33420238D01*
X43489523Y-33515476D01*
X43394285Y-33563095D01*
G04 #@! TO.C,R2*
X43013333Y-38722380D02*
X42680000Y-38246190D01*
X42441904Y-38722380D02*
X42441904Y-37722380D01*
X42822857Y-37722380D01*
X42918095Y-37770000D01*
X42965714Y-37817619D01*
X43013333Y-37912857D01*
X43013333Y-38055714D01*
X42965714Y-38150952D01*
X42918095Y-38198571D01*
X42822857Y-38246190D01*
X42441904Y-38246190D01*
X43394285Y-37817619D02*
X43441904Y-37770000D01*
X43537142Y-37722380D01*
X43775238Y-37722380D01*
X43870476Y-37770000D01*
X43918095Y-37817619D01*
X43965714Y-37912857D01*
X43965714Y-38008095D01*
X43918095Y-38150952D01*
X43346666Y-38722380D01*
X43965714Y-38722380D01*
G04 #@! TO.C,R3*
X43013333Y-42532380D02*
X42680000Y-42056190D01*
X42441904Y-42532380D02*
X42441904Y-41532380D01*
X42822857Y-41532380D01*
X42918095Y-41580000D01*
X42965714Y-41627619D01*
X43013333Y-41722857D01*
X43013333Y-41865714D01*
X42965714Y-41960952D01*
X42918095Y-42008571D01*
X42822857Y-42056190D01*
X42441904Y-42056190D01*
X43346666Y-41532380D02*
X43965714Y-41532380D01*
X43632380Y-41913333D01*
X43775238Y-41913333D01*
X43870476Y-41960952D01*
X43918095Y-42008571D01*
X43965714Y-42103809D01*
X43965714Y-42341904D01*
X43918095Y-42437142D01*
X43870476Y-42484761D01*
X43775238Y-42532380D01*
X43489523Y-42532380D01*
X43394285Y-42484761D01*
X43346666Y-42437142D01*
G04 #@! TO.C,R4*
X43013333Y-47612380D02*
X42680000Y-47136190D01*
X42441904Y-47612380D02*
X42441904Y-46612380D01*
X42822857Y-46612380D01*
X42918095Y-46660000D01*
X42965714Y-46707619D01*
X43013333Y-46802857D01*
X43013333Y-46945714D01*
X42965714Y-47040952D01*
X42918095Y-47088571D01*
X42822857Y-47136190D01*
X42441904Y-47136190D01*
X43870476Y-46945714D02*
X43870476Y-47612380D01*
X43632380Y-46564761D02*
X43394285Y-47279047D01*
X44013333Y-47279047D01*
G04 #@! TO.C,R5*
X43013333Y-51422380D02*
X42680000Y-50946190D01*
X42441904Y-51422380D02*
X42441904Y-50422380D01*
X42822857Y-50422380D01*
X42918095Y-50470000D01*
X42965714Y-50517619D01*
X43013333Y-50612857D01*
X43013333Y-50755714D01*
X42965714Y-50850952D01*
X42918095Y-50898571D01*
X42822857Y-50946190D01*
X42441904Y-50946190D01*
X43918095Y-50422380D02*
X43441904Y-50422380D01*
X43394285Y-50898571D01*
X43441904Y-50850952D01*
X43537142Y-50803333D01*
X43775238Y-50803333D01*
X43870476Y-50850952D01*
X43918095Y-50898571D01*
X43965714Y-50993809D01*
X43965714Y-51231904D01*
X43918095Y-51327142D01*
X43870476Y-51374761D01*
X43775238Y-51422380D01*
X43537142Y-51422380D01*
X43441904Y-51374761D01*
X43394285Y-51327142D01*
G04 #@! TO.C,R6*
X43013333Y-55232380D02*
X42680000Y-54756190D01*
X42441904Y-55232380D02*
X42441904Y-54232380D01*
X42822857Y-54232380D01*
X42918095Y-54280000D01*
X42965714Y-54327619D01*
X43013333Y-54422857D01*
X43013333Y-54565714D01*
X42965714Y-54660952D01*
X42918095Y-54708571D01*
X42822857Y-54756190D01*
X42441904Y-54756190D01*
X43870476Y-54232380D02*
X43680000Y-54232380D01*
X43584761Y-54280000D01*
X43537142Y-54327619D01*
X43441904Y-54470476D01*
X43394285Y-54660952D01*
X43394285Y-55041904D01*
X43441904Y-55137142D01*
X43489523Y-55184761D01*
X43584761Y-55232380D01*
X43775238Y-55232380D01*
X43870476Y-55184761D01*
X43918095Y-55137142D01*
X43965714Y-55041904D01*
X43965714Y-54803809D01*
X43918095Y-54708571D01*
X43870476Y-54660952D01*
X43775238Y-54613333D01*
X43584761Y-54613333D01*
X43489523Y-54660952D01*
X43441904Y-54708571D01*
X43394285Y-54803809D01*
G04 #@! TO.C,R7*
X43013333Y-60312380D02*
X42680000Y-59836190D01*
X42441904Y-60312380D02*
X42441904Y-59312380D01*
X42822857Y-59312380D01*
X42918095Y-59360000D01*
X42965714Y-59407619D01*
X43013333Y-59502857D01*
X43013333Y-59645714D01*
X42965714Y-59740952D01*
X42918095Y-59788571D01*
X42822857Y-59836190D01*
X42441904Y-59836190D01*
X43346666Y-59312380D02*
X44013333Y-59312380D01*
X43584761Y-60312380D01*
G04 #@! TO.C,R8*
X43013333Y-64122380D02*
X42680000Y-63646190D01*
X42441904Y-64122380D02*
X42441904Y-63122380D01*
X42822857Y-63122380D01*
X42918095Y-63170000D01*
X42965714Y-63217619D01*
X43013333Y-63312857D01*
X43013333Y-63455714D01*
X42965714Y-63550952D01*
X42918095Y-63598571D01*
X42822857Y-63646190D01*
X42441904Y-63646190D01*
X43584761Y-63550952D02*
X43489523Y-63503333D01*
X43441904Y-63455714D01*
X43394285Y-63360476D01*
X43394285Y-63312857D01*
X43441904Y-63217619D01*
X43489523Y-63170000D01*
X43584761Y-63122380D01*
X43775238Y-63122380D01*
X43870476Y-63170000D01*
X43918095Y-63217619D01*
X43965714Y-63312857D01*
X43965714Y-63360476D01*
X43918095Y-63455714D01*
X43870476Y-63503333D01*
X43775238Y-63550952D01*
X43584761Y-63550952D01*
X43489523Y-63598571D01*
X43441904Y-63646190D01*
X43394285Y-63741428D01*
X43394285Y-63931904D01*
X43441904Y-64027142D01*
X43489523Y-64074761D01*
X43584761Y-64122380D01*
X43775238Y-64122380D01*
X43870476Y-64074761D01*
X43918095Y-64027142D01*
X43965714Y-63931904D01*
X43965714Y-63741428D01*
X43918095Y-63646190D01*
X43870476Y-63598571D01*
X43775238Y-63550952D01*
G04 #@! TO.C,R9*
X43013333Y-67932380D02*
X42680000Y-67456190D01*
X42441904Y-67932380D02*
X42441904Y-66932380D01*
X42822857Y-66932380D01*
X42918095Y-66980000D01*
X42965714Y-67027619D01*
X43013333Y-67122857D01*
X43013333Y-67265714D01*
X42965714Y-67360952D01*
X42918095Y-67408571D01*
X42822857Y-67456190D01*
X42441904Y-67456190D01*
X43489523Y-67932380D02*
X43680000Y-67932380D01*
X43775238Y-67884761D01*
X43822857Y-67837142D01*
X43918095Y-67694285D01*
X43965714Y-67503809D01*
X43965714Y-67122857D01*
X43918095Y-67027619D01*
X43870476Y-66980000D01*
X43775238Y-66932380D01*
X43584761Y-66932380D01*
X43489523Y-66980000D01*
X43441904Y-67027619D01*
X43394285Y-67122857D01*
X43394285Y-67360952D01*
X43441904Y-67456190D01*
X43489523Y-67503809D01*
X43584761Y-67551428D01*
X43775238Y-67551428D01*
X43870476Y-67503809D01*
X43918095Y-67456190D01*
X43965714Y-67360952D01*
G04 #@! TO.C,R10*
X31107142Y-33302380D02*
X30773809Y-32826190D01*
X30535714Y-33302380D02*
X30535714Y-32302380D01*
X30916666Y-32302380D01*
X31011904Y-32350000D01*
X31059523Y-32397619D01*
X31107142Y-32492857D01*
X31107142Y-32635714D01*
X31059523Y-32730952D01*
X31011904Y-32778571D01*
X30916666Y-32826190D01*
X30535714Y-32826190D01*
X32059523Y-33302380D02*
X31488095Y-33302380D01*
X31773809Y-33302380D02*
X31773809Y-32302380D01*
X31678571Y-32445238D01*
X31583333Y-32540476D01*
X31488095Y-32588095D01*
X32678571Y-32302380D02*
X32773809Y-32302380D01*
X32869047Y-32350000D01*
X32916666Y-32397619D01*
X32964285Y-32492857D01*
X33011904Y-32683333D01*
X33011904Y-32921428D01*
X32964285Y-33111904D01*
X32916666Y-33207142D01*
X32869047Y-33254761D01*
X32773809Y-33302380D01*
X32678571Y-33302380D01*
X32583333Y-33254761D01*
X32535714Y-33207142D01*
X32488095Y-33111904D01*
X32440476Y-32921428D01*
X32440476Y-32683333D01*
X32488095Y-32492857D01*
X32535714Y-32397619D01*
X32583333Y-32350000D01*
X32678571Y-32302380D01*
G04 #@! TO.C,R11*
X31107142Y-38382380D02*
X30773809Y-37906190D01*
X30535714Y-38382380D02*
X30535714Y-37382380D01*
X30916666Y-37382380D01*
X31011904Y-37430000D01*
X31059523Y-37477619D01*
X31107142Y-37572857D01*
X31107142Y-37715714D01*
X31059523Y-37810952D01*
X31011904Y-37858571D01*
X30916666Y-37906190D01*
X30535714Y-37906190D01*
X32059523Y-38382380D02*
X31488095Y-38382380D01*
X31773809Y-38382380D02*
X31773809Y-37382380D01*
X31678571Y-37525238D01*
X31583333Y-37620476D01*
X31488095Y-37668095D01*
X33011904Y-38382380D02*
X32440476Y-38382380D01*
X32726190Y-38382380D02*
X32726190Y-37382380D01*
X32630952Y-37525238D01*
X32535714Y-37620476D01*
X32440476Y-37668095D01*
G04 #@! TO.C,R12*
X31107142Y-43462380D02*
X30773809Y-42986190D01*
X30535714Y-43462380D02*
X30535714Y-42462380D01*
X30916666Y-42462380D01*
X31011904Y-42510000D01*
X31059523Y-42557619D01*
X31107142Y-42652857D01*
X31107142Y-42795714D01*
X31059523Y-42890952D01*
X31011904Y-42938571D01*
X30916666Y-42986190D01*
X30535714Y-42986190D01*
X32059523Y-43462380D02*
X31488095Y-43462380D01*
X31773809Y-43462380D02*
X31773809Y-42462380D01*
X31678571Y-42605238D01*
X31583333Y-42700476D01*
X31488095Y-42748095D01*
X32440476Y-42557619D02*
X32488095Y-42510000D01*
X32583333Y-42462380D01*
X32821428Y-42462380D01*
X32916666Y-42510000D01*
X32964285Y-42557619D01*
X33011904Y-42652857D01*
X33011904Y-42748095D01*
X32964285Y-42890952D01*
X32392857Y-43462380D01*
X33011904Y-43462380D01*
G04 #@! TO.C,R13*
X31107142Y-49812380D02*
X30773809Y-49336190D01*
X30535714Y-49812380D02*
X30535714Y-48812380D01*
X30916666Y-48812380D01*
X31011904Y-48860000D01*
X31059523Y-48907619D01*
X31107142Y-49002857D01*
X31107142Y-49145714D01*
X31059523Y-49240952D01*
X31011904Y-49288571D01*
X30916666Y-49336190D01*
X30535714Y-49336190D01*
X32059523Y-49812380D02*
X31488095Y-49812380D01*
X31773809Y-49812380D02*
X31773809Y-48812380D01*
X31678571Y-48955238D01*
X31583333Y-49050476D01*
X31488095Y-49098095D01*
X32392857Y-48812380D02*
X33011904Y-48812380D01*
X32678571Y-49193333D01*
X32821428Y-49193333D01*
X32916666Y-49240952D01*
X32964285Y-49288571D01*
X33011904Y-49383809D01*
X33011904Y-49621904D01*
X32964285Y-49717142D01*
X32916666Y-49764761D01*
X32821428Y-49812380D01*
X32535714Y-49812380D01*
X32440476Y-49764761D01*
X32392857Y-49717142D01*
G04 #@! TO.C,R14*
X31107142Y-54892380D02*
X30773809Y-54416190D01*
X30535714Y-54892380D02*
X30535714Y-53892380D01*
X30916666Y-53892380D01*
X31011904Y-53940000D01*
X31059523Y-53987619D01*
X31107142Y-54082857D01*
X31107142Y-54225714D01*
X31059523Y-54320952D01*
X31011904Y-54368571D01*
X30916666Y-54416190D01*
X30535714Y-54416190D01*
X32059523Y-54892380D02*
X31488095Y-54892380D01*
X31773809Y-54892380D02*
X31773809Y-53892380D01*
X31678571Y-54035238D01*
X31583333Y-54130476D01*
X31488095Y-54178095D01*
X32916666Y-54225714D02*
X32916666Y-54892380D01*
X32678571Y-53844761D02*
X32440476Y-54559047D01*
X33059523Y-54559047D01*
G04 #@! TO.C,R15*
X31107142Y-59972380D02*
X30773809Y-59496190D01*
X30535714Y-59972380D02*
X30535714Y-58972380D01*
X30916666Y-58972380D01*
X31011904Y-59020000D01*
X31059523Y-59067619D01*
X31107142Y-59162857D01*
X31107142Y-59305714D01*
X31059523Y-59400952D01*
X31011904Y-59448571D01*
X30916666Y-59496190D01*
X30535714Y-59496190D01*
X32059523Y-59972380D02*
X31488095Y-59972380D01*
X31773809Y-59972380D02*
X31773809Y-58972380D01*
X31678571Y-59115238D01*
X31583333Y-59210476D01*
X31488095Y-59258095D01*
X32964285Y-58972380D02*
X32488095Y-58972380D01*
X32440476Y-59448571D01*
X32488095Y-59400952D01*
X32583333Y-59353333D01*
X32821428Y-59353333D01*
X32916666Y-59400952D01*
X32964285Y-59448571D01*
X33011904Y-59543809D01*
X33011904Y-59781904D01*
X32964285Y-59877142D01*
X32916666Y-59924761D01*
X32821428Y-59972380D01*
X32583333Y-59972380D01*
X32488095Y-59924761D01*
X32440476Y-59877142D01*
G04 #@! TO.C,R16*
X31107142Y-66322380D02*
X30773809Y-65846190D01*
X30535714Y-66322380D02*
X30535714Y-65322380D01*
X30916666Y-65322380D01*
X31011904Y-65370000D01*
X31059523Y-65417619D01*
X31107142Y-65512857D01*
X31107142Y-65655714D01*
X31059523Y-65750952D01*
X31011904Y-65798571D01*
X30916666Y-65846190D01*
X30535714Y-65846190D01*
X32059523Y-66322380D02*
X31488095Y-66322380D01*
X31773809Y-66322380D02*
X31773809Y-65322380D01*
X31678571Y-65465238D01*
X31583333Y-65560476D01*
X31488095Y-65608095D01*
X32916666Y-65322380D02*
X32726190Y-65322380D01*
X32630952Y-65370000D01*
X32583333Y-65417619D01*
X32488095Y-65560476D01*
X32440476Y-65750952D01*
X32440476Y-66131904D01*
X32488095Y-66227142D01*
X32535714Y-66274761D01*
X32630952Y-66322380D01*
X32821428Y-66322380D01*
X32916666Y-66274761D01*
X32964285Y-66227142D01*
X33011904Y-66131904D01*
X33011904Y-65893809D01*
X32964285Y-65798571D01*
X32916666Y-65750952D01*
X32821428Y-65703333D01*
X32630952Y-65703333D01*
X32535714Y-65750952D01*
X32488095Y-65798571D01*
X32440476Y-65893809D01*
G04 #@! TO.C,R17*
X31107142Y-71402380D02*
X30773809Y-70926190D01*
X30535714Y-71402380D02*
X30535714Y-70402380D01*
X30916666Y-70402380D01*
X31011904Y-70450000D01*
X31059523Y-70497619D01*
X31107142Y-70592857D01*
X31107142Y-70735714D01*
X31059523Y-70830952D01*
X31011904Y-70878571D01*
X30916666Y-70926190D01*
X30535714Y-70926190D01*
X32059523Y-71402380D02*
X31488095Y-71402380D01*
X31773809Y-71402380D02*
X31773809Y-70402380D01*
X31678571Y-70545238D01*
X31583333Y-70640476D01*
X31488095Y-70688095D01*
X32392857Y-70402380D02*
X33059523Y-70402380D01*
X32630952Y-71402380D01*
G04 #@! TO.C,R18*
X31107142Y-76482380D02*
X30773809Y-76006190D01*
X30535714Y-76482380D02*
X30535714Y-75482380D01*
X30916666Y-75482380D01*
X31011904Y-75530000D01*
X31059523Y-75577619D01*
X31107142Y-75672857D01*
X31107142Y-75815714D01*
X31059523Y-75910952D01*
X31011904Y-75958571D01*
X30916666Y-76006190D01*
X30535714Y-76006190D01*
X32059523Y-76482380D02*
X31488095Y-76482380D01*
X31773809Y-76482380D02*
X31773809Y-75482380D01*
X31678571Y-75625238D01*
X31583333Y-75720476D01*
X31488095Y-75768095D01*
X32630952Y-75910952D02*
X32535714Y-75863333D01*
X32488095Y-75815714D01*
X32440476Y-75720476D01*
X32440476Y-75672857D01*
X32488095Y-75577619D01*
X32535714Y-75530000D01*
X32630952Y-75482380D01*
X32821428Y-75482380D01*
X32916666Y-75530000D01*
X32964285Y-75577619D01*
X33011904Y-75672857D01*
X33011904Y-75720476D01*
X32964285Y-75815714D01*
X32916666Y-75863333D01*
X32821428Y-75910952D01*
X32630952Y-75910952D01*
X32535714Y-75958571D01*
X32488095Y-76006190D01*
X32440476Y-76101428D01*
X32440476Y-76291904D01*
X32488095Y-76387142D01*
X32535714Y-76434761D01*
X32630952Y-76482380D01*
X32821428Y-76482380D01*
X32916666Y-76434761D01*
X32964285Y-76387142D01*
X33011904Y-76291904D01*
X33011904Y-76101428D01*
X32964285Y-76006190D01*
X32916666Y-75958571D01*
X32821428Y-75910952D01*
G04 #@! TO.C,R19*
X70472380Y-22232857D02*
X69996190Y-22566190D01*
X70472380Y-22804285D02*
X69472380Y-22804285D01*
X69472380Y-22423333D01*
X69520000Y-22328095D01*
X69567619Y-22280476D01*
X69662857Y-22232857D01*
X69805714Y-22232857D01*
X69900952Y-22280476D01*
X69948571Y-22328095D01*
X69996190Y-22423333D01*
X69996190Y-22804285D01*
X70472380Y-21280476D02*
X70472380Y-21851904D01*
X70472380Y-21566190D02*
X69472380Y-21566190D01*
X69615238Y-21661428D01*
X69710476Y-21756666D01*
X69758095Y-21851904D01*
X70472380Y-20804285D02*
X70472380Y-20613809D01*
X70424761Y-20518571D01*
X70377142Y-20470952D01*
X70234285Y-20375714D01*
X70043809Y-20328095D01*
X69662857Y-20328095D01*
X69567619Y-20375714D01*
X69520000Y-20423333D01*
X69472380Y-20518571D01*
X69472380Y-20709047D01*
X69520000Y-20804285D01*
X69567619Y-20851904D01*
X69662857Y-20899523D01*
X69900952Y-20899523D01*
X69996190Y-20851904D01*
X70043809Y-20804285D01*
X70091428Y-20709047D01*
X70091428Y-20518571D01*
X70043809Y-20423333D01*
X69996190Y-20375714D01*
X69900952Y-20328095D01*
G04 #@! TO.C,R20*
X60312380Y-22232857D02*
X59836190Y-22566190D01*
X60312380Y-22804285D02*
X59312380Y-22804285D01*
X59312380Y-22423333D01*
X59360000Y-22328095D01*
X59407619Y-22280476D01*
X59502857Y-22232857D01*
X59645714Y-22232857D01*
X59740952Y-22280476D01*
X59788571Y-22328095D01*
X59836190Y-22423333D01*
X59836190Y-22804285D01*
X59407619Y-21851904D02*
X59360000Y-21804285D01*
X59312380Y-21709047D01*
X59312380Y-21470952D01*
X59360000Y-21375714D01*
X59407619Y-21328095D01*
X59502857Y-21280476D01*
X59598095Y-21280476D01*
X59740952Y-21328095D01*
X60312380Y-21899523D01*
X60312380Y-21280476D01*
X59312380Y-20661428D02*
X59312380Y-20566190D01*
X59360000Y-20470952D01*
X59407619Y-20423333D01*
X59502857Y-20375714D01*
X59693333Y-20328095D01*
X59931428Y-20328095D01*
X60121904Y-20375714D01*
X60217142Y-20423333D01*
X60264761Y-20470952D01*
X60312380Y-20566190D01*
X60312380Y-20661428D01*
X60264761Y-20756666D01*
X60217142Y-20804285D01*
X60121904Y-20851904D01*
X59931428Y-20899523D01*
X59693333Y-20899523D01*
X59502857Y-20851904D01*
X59407619Y-20804285D01*
X59360000Y-20756666D01*
X59312380Y-20661428D01*
G04 #@! TO.C,R21*
X102227142Y-24412380D02*
X101893809Y-23936190D01*
X101655714Y-24412380D02*
X101655714Y-23412380D01*
X102036666Y-23412380D01*
X102131904Y-23460000D01*
X102179523Y-23507619D01*
X102227142Y-23602857D01*
X102227142Y-23745714D01*
X102179523Y-23840952D01*
X102131904Y-23888571D01*
X102036666Y-23936190D01*
X101655714Y-23936190D01*
X102608095Y-23507619D02*
X102655714Y-23460000D01*
X102750952Y-23412380D01*
X102989047Y-23412380D01*
X103084285Y-23460000D01*
X103131904Y-23507619D01*
X103179523Y-23602857D01*
X103179523Y-23698095D01*
X103131904Y-23840952D01*
X102560476Y-24412380D01*
X103179523Y-24412380D01*
X104131904Y-24412380D02*
X103560476Y-24412380D01*
X103846190Y-24412380D02*
X103846190Y-23412380D01*
X103750952Y-23555238D01*
X103655714Y-23650476D01*
X103560476Y-23698095D01*
G04 #@! TO.C,R22*
X102227142Y-32032380D02*
X101893809Y-31556190D01*
X101655714Y-32032380D02*
X101655714Y-31032380D01*
X102036666Y-31032380D01*
X102131904Y-31080000D01*
X102179523Y-31127619D01*
X102227142Y-31222857D01*
X102227142Y-31365714D01*
X102179523Y-31460952D01*
X102131904Y-31508571D01*
X102036666Y-31556190D01*
X101655714Y-31556190D01*
X102608095Y-31127619D02*
X102655714Y-31080000D01*
X102750952Y-31032380D01*
X102989047Y-31032380D01*
X103084285Y-31080000D01*
X103131904Y-31127619D01*
X103179523Y-31222857D01*
X103179523Y-31318095D01*
X103131904Y-31460952D01*
X102560476Y-32032380D01*
X103179523Y-32032380D01*
X103560476Y-31127619D02*
X103608095Y-31080000D01*
X103703333Y-31032380D01*
X103941428Y-31032380D01*
X104036666Y-31080000D01*
X104084285Y-31127619D01*
X104131904Y-31222857D01*
X104131904Y-31318095D01*
X104084285Y-31460952D01*
X103512857Y-32032380D01*
X104131904Y-32032380D01*
G04 #@! TO.C,R23*
X102227142Y-39652380D02*
X101893809Y-39176190D01*
X101655714Y-39652380D02*
X101655714Y-38652380D01*
X102036666Y-38652380D01*
X102131904Y-38700000D01*
X102179523Y-38747619D01*
X102227142Y-38842857D01*
X102227142Y-38985714D01*
X102179523Y-39080952D01*
X102131904Y-39128571D01*
X102036666Y-39176190D01*
X101655714Y-39176190D01*
X102608095Y-38747619D02*
X102655714Y-38700000D01*
X102750952Y-38652380D01*
X102989047Y-38652380D01*
X103084285Y-38700000D01*
X103131904Y-38747619D01*
X103179523Y-38842857D01*
X103179523Y-38938095D01*
X103131904Y-39080952D01*
X102560476Y-39652380D01*
X103179523Y-39652380D01*
X103512857Y-38652380D02*
X104131904Y-38652380D01*
X103798571Y-39033333D01*
X103941428Y-39033333D01*
X104036666Y-39080952D01*
X104084285Y-39128571D01*
X104131904Y-39223809D01*
X104131904Y-39461904D01*
X104084285Y-39557142D01*
X104036666Y-39604761D01*
X103941428Y-39652380D01*
X103655714Y-39652380D01*
X103560476Y-39604761D01*
X103512857Y-39557142D01*
G04 #@! TO.C,R24*
X102227142Y-45537380D02*
X101893809Y-45061190D01*
X101655714Y-45537380D02*
X101655714Y-44537380D01*
X102036666Y-44537380D01*
X102131904Y-44585000D01*
X102179523Y-44632619D01*
X102227142Y-44727857D01*
X102227142Y-44870714D01*
X102179523Y-44965952D01*
X102131904Y-45013571D01*
X102036666Y-45061190D01*
X101655714Y-45061190D01*
X102608095Y-44632619D02*
X102655714Y-44585000D01*
X102750952Y-44537380D01*
X102989047Y-44537380D01*
X103084285Y-44585000D01*
X103131904Y-44632619D01*
X103179523Y-44727857D01*
X103179523Y-44823095D01*
X103131904Y-44965952D01*
X102560476Y-45537380D01*
X103179523Y-45537380D01*
X104036666Y-44870714D02*
X104036666Y-45537380D01*
X103798571Y-44489761D02*
X103560476Y-45204047D01*
X104179523Y-45204047D01*
G04 #@! TO.C,R25*
X102227142Y-65052380D02*
X101893809Y-64576190D01*
X101655714Y-65052380D02*
X101655714Y-64052380D01*
X102036666Y-64052380D01*
X102131904Y-64100000D01*
X102179523Y-64147619D01*
X102227142Y-64242857D01*
X102227142Y-64385714D01*
X102179523Y-64480952D01*
X102131904Y-64528571D01*
X102036666Y-64576190D01*
X101655714Y-64576190D01*
X102608095Y-64147619D02*
X102655714Y-64100000D01*
X102750952Y-64052380D01*
X102989047Y-64052380D01*
X103084285Y-64100000D01*
X103131904Y-64147619D01*
X103179523Y-64242857D01*
X103179523Y-64338095D01*
X103131904Y-64480952D01*
X102560476Y-65052380D01*
X103179523Y-65052380D01*
X104084285Y-64052380D02*
X103608095Y-64052380D01*
X103560476Y-64528571D01*
X103608095Y-64480952D01*
X103703333Y-64433333D01*
X103941428Y-64433333D01*
X104036666Y-64480952D01*
X104084285Y-64528571D01*
X104131904Y-64623809D01*
X104131904Y-64861904D01*
X104084285Y-64957142D01*
X104036666Y-65004761D01*
X103941428Y-65052380D01*
X103703333Y-65052380D01*
X103608095Y-65004761D01*
X103560476Y-64957142D01*
G04 #@! TO.C,R27*
X102227142Y-80292380D02*
X101893809Y-79816190D01*
X101655714Y-80292380D02*
X101655714Y-79292380D01*
X102036666Y-79292380D01*
X102131904Y-79340000D01*
X102179523Y-79387619D01*
X102227142Y-79482857D01*
X102227142Y-79625714D01*
X102179523Y-79720952D01*
X102131904Y-79768571D01*
X102036666Y-79816190D01*
X101655714Y-79816190D01*
X102608095Y-79387619D02*
X102655714Y-79340000D01*
X102750952Y-79292380D01*
X102989047Y-79292380D01*
X103084285Y-79340000D01*
X103131904Y-79387619D01*
X103179523Y-79482857D01*
X103179523Y-79578095D01*
X103131904Y-79720952D01*
X102560476Y-80292380D01*
X103179523Y-80292380D01*
X103512857Y-79292380D02*
X104179523Y-79292380D01*
X103750952Y-80292380D01*
G04 #@! TO.C,R28*
X102227142Y-86177380D02*
X101893809Y-85701190D01*
X101655714Y-86177380D02*
X101655714Y-85177380D01*
X102036666Y-85177380D01*
X102131904Y-85225000D01*
X102179523Y-85272619D01*
X102227142Y-85367857D01*
X102227142Y-85510714D01*
X102179523Y-85605952D01*
X102131904Y-85653571D01*
X102036666Y-85701190D01*
X101655714Y-85701190D01*
X102608095Y-85272619D02*
X102655714Y-85225000D01*
X102750952Y-85177380D01*
X102989047Y-85177380D01*
X103084285Y-85225000D01*
X103131904Y-85272619D01*
X103179523Y-85367857D01*
X103179523Y-85463095D01*
X103131904Y-85605952D01*
X102560476Y-86177380D01*
X103179523Y-86177380D01*
X103750952Y-85605952D02*
X103655714Y-85558333D01*
X103608095Y-85510714D01*
X103560476Y-85415476D01*
X103560476Y-85367857D01*
X103608095Y-85272619D01*
X103655714Y-85225000D01*
X103750952Y-85177380D01*
X103941428Y-85177380D01*
X104036666Y-85225000D01*
X104084285Y-85272619D01*
X104131904Y-85367857D01*
X104131904Y-85415476D01*
X104084285Y-85510714D01*
X104036666Y-85558333D01*
X103941428Y-85605952D01*
X103750952Y-85605952D01*
X103655714Y-85653571D01*
X103608095Y-85701190D01*
X103560476Y-85796428D01*
X103560476Y-85986904D01*
X103608095Y-86082142D01*
X103655714Y-86129761D01*
X103750952Y-86177380D01*
X103941428Y-86177380D01*
X104036666Y-86129761D01*
X104084285Y-86082142D01*
X104131904Y-85986904D01*
X104131904Y-85796428D01*
X104084285Y-85701190D01*
X104036666Y-85653571D01*
X103941428Y-85605952D01*
G04 #@! TO.C,SW1*
X41846666Y-86129761D02*
X41989523Y-86177380D01*
X42227619Y-86177380D01*
X42322857Y-86129761D01*
X42370476Y-86082142D01*
X42418095Y-85986904D01*
X42418095Y-85891666D01*
X42370476Y-85796428D01*
X42322857Y-85748809D01*
X42227619Y-85701190D01*
X42037142Y-85653571D01*
X41941904Y-85605952D01*
X41894285Y-85558333D01*
X41846666Y-85463095D01*
X41846666Y-85367857D01*
X41894285Y-85272619D01*
X41941904Y-85225000D01*
X42037142Y-85177380D01*
X42275238Y-85177380D01*
X42418095Y-85225000D01*
X42751428Y-85177380D02*
X42989523Y-86177380D01*
X43180000Y-85463095D01*
X43370476Y-86177380D01*
X43608571Y-85177380D01*
X44513333Y-86177380D02*
X43941904Y-86177380D01*
X44227619Y-86177380D02*
X44227619Y-85177380D01*
X44132380Y-85320238D01*
X44037142Y-85415476D01*
X43941904Y-85463095D01*
G04 #@! TO.C,SW2*
X30426666Y-86129761D02*
X30569523Y-86177380D01*
X30807619Y-86177380D01*
X30902857Y-86129761D01*
X30950476Y-86082142D01*
X30998095Y-85986904D01*
X30998095Y-85891666D01*
X30950476Y-85796428D01*
X30902857Y-85748809D01*
X30807619Y-85701190D01*
X30617142Y-85653571D01*
X30521904Y-85605952D01*
X30474285Y-85558333D01*
X30426666Y-85463095D01*
X30426666Y-85367857D01*
X30474285Y-85272619D01*
X30521904Y-85225000D01*
X30617142Y-85177380D01*
X30855238Y-85177380D01*
X30998095Y-85225000D01*
X31331428Y-85177380D02*
X31569523Y-86177380D01*
X31760000Y-85463095D01*
X31950476Y-86177380D01*
X32188571Y-85177380D01*
X32521904Y-85272619D02*
X32569523Y-85225000D01*
X32664761Y-85177380D01*
X32902857Y-85177380D01*
X32998095Y-85225000D01*
X33045714Y-85272619D01*
X33093333Y-85367857D01*
X33093333Y-85463095D01*
X33045714Y-85605952D01*
X32474285Y-86177380D01*
X33093333Y-86177380D01*
G04 #@! TO.C,SW3*
X83746666Y-51044761D02*
X83889523Y-51092380D01*
X84127619Y-51092380D01*
X84222857Y-51044761D01*
X84270476Y-50997142D01*
X84318095Y-50901904D01*
X84318095Y-50806666D01*
X84270476Y-50711428D01*
X84222857Y-50663809D01*
X84127619Y-50616190D01*
X83937142Y-50568571D01*
X83841904Y-50520952D01*
X83794285Y-50473333D01*
X83746666Y-50378095D01*
X83746666Y-50282857D01*
X83794285Y-50187619D01*
X83841904Y-50140000D01*
X83937142Y-50092380D01*
X84175238Y-50092380D01*
X84318095Y-50140000D01*
X84651428Y-50092380D02*
X84889523Y-51092380D01*
X85080000Y-50378095D01*
X85270476Y-51092380D01*
X85508571Y-50092380D01*
X85794285Y-50092380D02*
X86413333Y-50092380D01*
X86080000Y-50473333D01*
X86222857Y-50473333D01*
X86318095Y-50520952D01*
X86365714Y-50568571D01*
X86413333Y-50663809D01*
X86413333Y-50901904D01*
X86365714Y-50997142D01*
X86318095Y-51044761D01*
X86222857Y-51092380D01*
X85937142Y-51092380D01*
X85841904Y-51044761D01*
X85794285Y-50997142D01*
G04 #@! TO.C,U2*
X88352380Y-33781904D02*
X89161904Y-33781904D01*
X89257142Y-33734285D01*
X89304761Y-33686666D01*
X89352380Y-33591428D01*
X89352380Y-33400952D01*
X89304761Y-33305714D01*
X89257142Y-33258095D01*
X89161904Y-33210476D01*
X88352380Y-33210476D01*
X88447619Y-32781904D02*
X88400000Y-32734285D01*
X88352380Y-32639047D01*
X88352380Y-32400952D01*
X88400000Y-32305714D01*
X88447619Y-32258095D01*
X88542857Y-32210476D01*
X88638095Y-32210476D01*
X88780952Y-32258095D01*
X89352380Y-32829523D01*
X89352380Y-32210476D01*
G04 #@! TO.C,U3*
X88352380Y-74421904D02*
X89161904Y-74421904D01*
X89257142Y-74374285D01*
X89304761Y-74326666D01*
X89352380Y-74231428D01*
X89352380Y-74040952D01*
X89304761Y-73945714D01*
X89257142Y-73898095D01*
X89161904Y-73850476D01*
X88352380Y-73850476D01*
X88352380Y-73469523D02*
X88352380Y-72850476D01*
X88733333Y-73183809D01*
X88733333Y-73040952D01*
X88780952Y-72945714D01*
X88828571Y-72898095D01*
X88923809Y-72850476D01*
X89161904Y-72850476D01*
X89257142Y-72898095D01*
X89304761Y-72945714D01*
X89352380Y-73040952D01*
X89352380Y-73326666D01*
X89304761Y-73421904D01*
X89257142Y-73469523D01*
G04 #@! TD*
M02*
