G04 #@! TF.GenerationSoftware,KiCad,Pcbnew,5.1.9+dfsg1-1*
G04 #@! TF.CreationDate,2022-01-29T15:43:47+01:00*
G04 #@! TF.ProjectId,rogue_sensors,726f6775-655f-4736-956e-736f72732e6b,v01*
G04 #@! TF.SameCoordinates,Original*
G04 #@! TF.FileFunction,Soldermask,Bot*
G04 #@! TF.FilePolarity,Negative*
%FSLAX46Y46*%
G04 Gerber Fmt 4.6, Leading zero omitted, Abs format (unit mm)*
G04 Created by KiCad (PCBNEW 5.1.9+dfsg1-1) date 2022-01-29 15:43:47*
%MOMM*%
%LPD*%
G01*
G04 APERTURE LIST*
%ADD10C,1.600000*%
%ADD11O,1.600000X1.600000*%
%ADD12O,1.700000X1.700000*%
%ADD13R,1.700000X1.700000*%
%ADD14O,1.800000X1.800000*%
%ADD15O,1.500000X1.500000*%
%ADD16C,3.000000*%
%ADD17R,1.800000X1.800000*%
%ADD18C,1.800000*%
%ADD19C,2.100000*%
%ADD20R,2.100000X2.100000*%
%ADD21R,1.600000X1.600000*%
%ADD22C,1.524000*%
G04 APERTURE END LIST*
D10*
G04 #@! TO.C,R26*
X106680000Y-69850000D03*
D11*
X99060000Y-69850000D03*
G04 #@! TD*
D12*
G04 #@! TO.C,U1*
X53340000Y-30480000D03*
X53340000Y-33020000D03*
D13*
X53340000Y-35560000D03*
D12*
X53340000Y-38100000D03*
X53340000Y-40640000D03*
X53340000Y-43180000D03*
X53340000Y-45720000D03*
D13*
X53340000Y-48260000D03*
D12*
X53340000Y-50800000D03*
X53340000Y-53340000D03*
X53340000Y-55880000D03*
X53340000Y-58420000D03*
D13*
X53340000Y-60960000D03*
D12*
X53340000Y-63500000D03*
X53340000Y-66040000D03*
X53340000Y-68580000D03*
X53340000Y-71120000D03*
D13*
X53340000Y-73660000D03*
D12*
X53340000Y-76200000D03*
X53340000Y-78740000D03*
X71120000Y-78740000D03*
X71120000Y-76200000D03*
D13*
X71120000Y-73660000D03*
D12*
X71120000Y-71120000D03*
X71120000Y-68580000D03*
X71120000Y-66040000D03*
X71120000Y-63500000D03*
D13*
X71120000Y-60960000D03*
D12*
X71120000Y-58420000D03*
X71120000Y-55880000D03*
X71120000Y-53340000D03*
X71120000Y-50800000D03*
D13*
X71120000Y-48260000D03*
D12*
X71120000Y-45720000D03*
X71120000Y-43180000D03*
X71120000Y-40640000D03*
X71120000Y-38100000D03*
D13*
X71120000Y-35560000D03*
D12*
X71120000Y-33020000D03*
X71120000Y-30480000D03*
D14*
X59505000Y-30610000D03*
X64955000Y-30610000D03*
D15*
X59805000Y-33640000D03*
X64655000Y-33640000D03*
D12*
X59690000Y-78510000D03*
D13*
X62230000Y-78510000D03*
D12*
X64770000Y-78510000D03*
G04 #@! TD*
D16*
G04 #@! TO.C,J5*
X62230000Y-86360000D03*
G04 #@! TD*
D17*
G04 #@! TO.C,D1*
X66040000Y-17780000D03*
D18*
X68580000Y-17780000D03*
G04 #@! TD*
G04 #@! TO.C,D2*
X58420000Y-17780000D03*
D17*
X55880000Y-17780000D03*
G04 #@! TD*
D19*
G04 #@! TO.C,J1*
X20320000Y-30640000D03*
X20320000Y-35640000D03*
D20*
X20320000Y-40640000D03*
G04 #@! TD*
G04 #@! TO.C,J2*
X20320000Y-57150000D03*
D19*
X20320000Y-52150000D03*
X20320000Y-47150000D03*
G04 #@! TD*
D20*
G04 #@! TO.C,J3*
X20320000Y-73660000D03*
D19*
X20320000Y-68660000D03*
X20320000Y-63660000D03*
G04 #@! TD*
D20*
G04 #@! TO.C,J4*
X20320000Y-86360000D03*
D19*
X20320000Y-81360000D03*
G04 #@! TD*
D20*
G04 #@! TO.C,J6*
X114300000Y-21590000D03*
D19*
X114300000Y-24130000D03*
G04 #@! TD*
G04 #@! TO.C,J7*
X114300000Y-31750000D03*
D20*
X114300000Y-29210000D03*
G04 #@! TD*
G04 #@! TO.C,J8*
X114300000Y-36830000D03*
D19*
X114300000Y-39370000D03*
G04 #@! TD*
G04 #@! TO.C,J9*
X114300000Y-46990000D03*
D20*
X114300000Y-44450000D03*
G04 #@! TD*
G04 #@! TO.C,J10*
X114300000Y-62230000D03*
D19*
X114300000Y-64770000D03*
G04 #@! TD*
G04 #@! TO.C,J11*
X114300000Y-72390000D03*
D20*
X114300000Y-69850000D03*
G04 #@! TD*
G04 #@! TO.C,J12*
X114300000Y-77470000D03*
D19*
X114300000Y-80010000D03*
G04 #@! TD*
G04 #@! TO.C,J13*
X114300000Y-87630000D03*
D20*
X114300000Y-85090000D03*
G04 #@! TD*
D11*
G04 #@! TO.C,R1*
X46990000Y-36195000D03*
D10*
X39370000Y-36195000D03*
G04 #@! TD*
G04 #@! TO.C,R2*
X39370000Y-40640000D03*
D11*
X46990000Y-40640000D03*
G04 #@! TD*
G04 #@! TO.C,R3*
X46990000Y-44450000D03*
D10*
X39370000Y-44450000D03*
G04 #@! TD*
G04 #@! TO.C,R4*
X39370000Y-49530000D03*
D11*
X46990000Y-49530000D03*
G04 #@! TD*
G04 #@! TO.C,R5*
X46990000Y-53340000D03*
D10*
X39370000Y-53340000D03*
G04 #@! TD*
G04 #@! TO.C,R6*
X39370000Y-57150000D03*
D11*
X46990000Y-57150000D03*
G04 #@! TD*
G04 #@! TO.C,R7*
X46990000Y-62230000D03*
D10*
X39370000Y-62230000D03*
G04 #@! TD*
G04 #@! TO.C,R8*
X39370000Y-66040000D03*
D11*
X46990000Y-66040000D03*
G04 #@! TD*
G04 #@! TO.C,R9*
X46990000Y-69850000D03*
D10*
X39370000Y-69850000D03*
G04 #@! TD*
D11*
G04 #@! TO.C,R10*
X27940000Y-30480000D03*
D10*
X35560000Y-30480000D03*
G04 #@! TD*
G04 #@! TO.C,R11*
X35560000Y-35560000D03*
D11*
X27940000Y-35560000D03*
G04 #@! TD*
D10*
G04 #@! TO.C,R12*
X35560000Y-40640000D03*
D11*
X27940000Y-40640000D03*
G04 #@! TD*
G04 #@! TO.C,R13*
X27940000Y-46990000D03*
D10*
X35560000Y-46990000D03*
G04 #@! TD*
G04 #@! TO.C,R14*
X35560000Y-52070000D03*
D11*
X27940000Y-52070000D03*
G04 #@! TD*
D10*
G04 #@! TO.C,R15*
X35560000Y-57150000D03*
D11*
X27940000Y-57150000D03*
G04 #@! TD*
G04 #@! TO.C,R16*
X27940000Y-63500000D03*
D10*
X35560000Y-63500000D03*
G04 #@! TD*
G04 #@! TO.C,R17*
X35560000Y-68580000D03*
D11*
X27940000Y-68580000D03*
G04 #@! TD*
G04 #@! TO.C,R18*
X27940000Y-73660000D03*
D10*
X35560000Y-73660000D03*
G04 #@! TD*
D11*
G04 #@! TO.C,R19*
X72390000Y-17780000D03*
D10*
X72390000Y-25400000D03*
G04 #@! TD*
G04 #@! TO.C,R20*
X62230000Y-25400000D03*
D11*
X62230000Y-17780000D03*
G04 #@! TD*
G04 #@! TO.C,R21*
X99060000Y-21590000D03*
D10*
X106680000Y-21590000D03*
G04 #@! TD*
G04 #@! TO.C,R22*
X106680000Y-29210000D03*
D11*
X99060000Y-29210000D03*
G04 #@! TD*
G04 #@! TO.C,R23*
X99060000Y-36830000D03*
D10*
X106680000Y-36830000D03*
G04 #@! TD*
G04 #@! TO.C,R24*
X106680000Y-44450000D03*
D11*
X99060000Y-44450000D03*
G04 #@! TD*
G04 #@! TO.C,R25*
X99060000Y-62230000D03*
D10*
X106680000Y-62230000D03*
G04 #@! TD*
D11*
G04 #@! TO.C,R27*
X99060000Y-77470000D03*
D10*
X106680000Y-77470000D03*
G04 #@! TD*
G04 #@! TO.C,R28*
X106680000Y-85090000D03*
D11*
X99060000Y-85090000D03*
G04 #@! TD*
G04 #@! TO.C,SW1*
X39370000Y-86360000D03*
X46990000Y-81280000D03*
X39370000Y-81280000D03*
D21*
X46990000Y-86360000D03*
G04 #@! TD*
G04 #@! TO.C,SW2*
X35560000Y-86360000D03*
D11*
X27940000Y-81280000D03*
X35560000Y-81280000D03*
X27940000Y-86360000D03*
G04 #@! TD*
G04 #@! TO.C,SW3*
X88900000Y-53340000D03*
X81280000Y-58420000D03*
X88900000Y-58420000D03*
D21*
X81280000Y-53340000D03*
G04 #@! TD*
D22*
G04 #@! TO.C,U2*
X80010000Y-46990000D03*
X80010000Y-44450000D03*
X80010000Y-41910000D03*
X80010000Y-39370000D03*
X80010000Y-36830000D03*
X80010000Y-34290000D03*
X80010000Y-31750000D03*
X80010000Y-29210000D03*
X80010000Y-26670000D03*
X80010000Y-24130000D03*
G04 #@! TD*
G04 #@! TO.C,U3*
X80010000Y-64770000D03*
X80010000Y-67310000D03*
X80010000Y-69850000D03*
X80010000Y-72390000D03*
X80010000Y-74930000D03*
X80010000Y-77470000D03*
X80010000Y-80010000D03*
X80010000Y-82550000D03*
X80010000Y-85090000D03*
X80010000Y-87630000D03*
G04 #@! TD*
M02*
