M48
; DRILL file {KiCad 5.1.9+dfsg1-1} date Sat Jan 29 15:44:52 2022
; FORMAT={-:-/ absolute / inch / decimal}
; #@! TF.CreationDate,2022-01-29T15:44:52+01:00
; #@! TF.GenerationSoftware,Kicad,Pcbnew,5.1.9+dfsg1-1
; #@! TF.FileFunction,Plated,1,2,PTH
FMAT,2
INCH
T1C0.0300
T2C0.0315
T3C0.0354
T4C0.0402
T5C0.0433
T6C0.0591
%
G90
G05
T1
X3.15Y-0.95
X3.15Y-1.05
X3.15Y-1.15
X3.15Y-1.25
X3.15Y-1.35
X3.15Y-1.45
X3.15Y-1.55
X3.15Y-1.65
X3.15Y-1.75
X3.15Y-1.85
X3.15Y-2.55
X3.15Y-2.65
X3.15Y-2.75
X3.15Y-2.85
X3.15Y-2.95
X3.15Y-3.05
X3.15Y-3.15
X3.15Y-3.25
X3.15Y-3.35
X3.15Y-3.45
T2
X1.1Y-1.2
X1.1Y-1.4
X1.1Y-1.6
X1.1Y-1.85
X1.1Y-2.05
X1.1Y-2.25
X1.1Y-2.5
X1.1Y-2.7
X1.1Y-2.9
X1.1Y-3.2
X1.1Y-3.4
X1.4Y-1.2
X1.4Y-1.4
X1.4Y-1.6
X1.4Y-1.85
X1.4Y-2.05
X1.4Y-2.25
X1.4Y-2.5
X1.4Y-2.7
X1.4Y-2.9
X1.4Y-3.2
X1.4Y-3.4
X1.55Y-1.425
X1.55Y-1.6
X1.55Y-1.75
X1.55Y-1.95
X1.55Y-2.1
X1.55Y-2.25
X1.55Y-2.45
X1.55Y-2.6
X1.55Y-2.75
X1.55Y-3.2
X1.55Y-3.4
X1.85Y-1.425
X1.85Y-1.6
X1.85Y-1.75
X1.85Y-1.95
X1.85Y-2.1
X1.85Y-2.25
X1.85Y-2.45
X1.85Y-2.6
X1.85Y-2.75
X1.85Y-3.2
X1.85Y-3.4
X2.45Y-0.7
X2.45Y-1.0
X2.85Y-0.7
X2.85Y-1.0
X3.2Y-2.1
X3.2Y-2.3
X3.5Y-2.1
X3.5Y-2.3
X3.9Y-0.85
X3.9Y-1.15
X3.9Y-1.45
X3.9Y-1.75
X3.9Y-2.45
X3.9Y-2.75
X3.9Y-3.05
X3.9Y-3.35
X4.2Y-0.85
X4.2Y-1.15
X4.2Y-1.45
X4.2Y-1.75
X4.2Y-2.45
X4.2Y-2.75
X4.2Y-3.05
X4.2Y-3.35
T3
X2.2Y-0.7
X2.3Y-0.7
X2.6Y-0.7
X2.7Y-0.7
T4
X2.1Y-1.2
X2.1Y-1.3
X2.1Y-1.4
X2.1Y-1.5
X2.1Y-1.6
X2.1Y-1.7
X2.1Y-1.8
X2.1Y-1.9
X2.1Y-2.0
X2.1Y-2.1
X2.1Y-2.2
X2.1Y-2.3
X2.1Y-2.4
X2.1Y-2.5
X2.1Y-2.6
X2.1Y-2.7
X2.1Y-2.8
X2.1Y-2.9
X2.1Y-3.0
X2.1Y-3.1
X2.35Y-3.0909
X2.45Y-3.0909
X2.55Y-3.0909
X2.8Y-1.2
X2.8Y-1.3
X2.8Y-1.4
X2.8Y-1.5
X2.8Y-1.6
X2.8Y-1.7
X2.8Y-1.8
X2.8Y-1.9
X2.8Y-2.0
X2.8Y-2.1
X2.8Y-2.2
X2.8Y-2.3
X2.8Y-2.4
X2.8Y-2.5
X2.8Y-2.6
X2.8Y-2.7
X2.8Y-2.8
X2.8Y-2.9
X2.8Y-3.0
X2.8Y-3.1
T5
X0.8Y-1.2063
X0.8Y-1.4031
X0.8Y-1.6
X0.8Y-1.8563
X0.8Y-2.0531
X0.8Y-2.25
X0.8Y-2.5063
X0.8Y-2.7031
X0.8Y-2.9
X0.8Y-3.2031
X0.8Y-3.4
X4.5Y-0.85
X4.5Y-0.95
X4.5Y-1.15
X4.5Y-1.25
X4.5Y-1.45
X4.5Y-1.55
X4.5Y-1.75
X4.5Y-1.85
X4.5Y-2.45
X4.5Y-2.55
X4.5Y-2.75
X4.5Y-2.85
X4.5Y-3.05
X4.5Y-3.15
X4.5Y-3.35
X4.5Y-3.45
T6
X2.45Y-3.4
T0
M30
